<?xml version="1.0" encoding="utf-8"?>
<!-- Generator: Adobe Illustrator 24.0.0, SVG Export Plug-In . SVG Version: 6.00 Build 0)  -->
<svg version="1.1" id="Layer_1" xmlns="http://www.w3.org/2000/svg" xmlns:xlink="http://www.w3.org/1999/xlink" x="0px" y="0px"
	 viewBox="0 0 512 512" style="enable-background:new 0 0 512 512;" xml:space="preserve">
<style type="text/css">
	.st0{fill:none;stroke:#FFFFFF;stroke-width:10;stroke-linecap:round;stroke-linejoin:round;stroke-miterlimit:10;}
	.st1{fill:none;stroke:#FFFFFF;stroke-width:10;stroke-miterlimit:10;}
</style>
<path class="st0" d="M256,256"/>
<g>
	<path class="st1" d="M261.2,292.6H61.4c-17.3,0-31.4-14.1-31.4-31.4V61.4C30,44.1,44.1,30,61.4,30h199.8
		c17.3,0,31.4,14.1,31.4,31.4v199.8C292.6,278.5,278.5,292.6,261.2,292.6z"/>
	<path class="st1" d="M292.6,219.4h158c17.3,0,31.4,14.1,31.4,31.4v199.8c0,17.3-14.1,31.4-31.4,31.4H250.8
		c-17.3,0-31.4-14.1-31.4-31.4v-158"/>
	<path class="st0" d="M432.7,190.9c0-61.7-50-111.7-111.7-111.7"/>
	<path class="st0" d="M79.3,321c0,61.7,50,111.7,111.7,111.7"/>
	<polyline class="st0" points="103.1,221.4 128.4,163.2 160,90.6 219.5,221.4 	"/>
	<line class="st0" x1="193.1" y1="169.9" x2="128.4" y2="169.9"/>
	<line class="st0" x1="281" y1="325.8" x2="410.7" y2="325.8"/>
	<path class="st0" d="M381.8,325.8c0,0-26.6,94.7-100.9,94.7"/>
	<line class="st0" x1="345.8" y1="325.8" x2="345.8" y2="292.6"/>
	<path class="st0" d="M309.8,325.8c0,0,26.6,94.7,100.9,94.7"/>
</g>
</svg>
