<?xml version="1.0" encoding="utf-8"?>
<!-- Generator: Adobe Illustrator 24.0.0, SVG Export Plug-In . SVG Version: 6.00 Build 0)  -->
<svg version="1.1" id="Layer_1" xmlns="http://www.w3.org/2000/svg" xmlns:xlink="http://www.w3.org/1999/xlink" x="0px" y="0px"
	 viewBox="0 0 512 512" style="enable-background:new 0 0 512 512;" xml:space="preserve">
<style type="text/css">
	.st0{fill:none;stroke:#FFFFFF;stroke-width:10;stroke-linecap:round;stroke-linejoin:round;stroke-miterlimit:10;}
</style>
<g>
	<g>
		<path class="st0" d="M425.23,370.66c-3.5,0.19-6.8,0.19-10.3,0.19c-56.5,0-109.71-21.94-149.71-61.94s-61.94-93.21-61.94-149.71
			c0-32.23,7.18-63.3,20.58-91.46c6.02-12.43,13.2-24.27,21.56-35.34c-14.76,1.56-28.93,4.66-42.72,8.93
			C111.82,70.08,46,154.93,46,255.32c0,123.88,100.39,224.27,224.27,224.27c68.55,0,129.71-30.68,170.88-79.03
			c9.32-11.07,17.86-23.1,24.85-35.92C452.8,367.94,439.2,370.08,425.23,370.66z"/>
	</g>
</g>
</svg>
