<?xml version="1.0" encoding="utf-8"?>
<!-- Generator: Adobe Illustrator 25.1.0, SVG Export Plug-In . SVG Version: 6.00 Build 0)  -->
<svg version="1.1" id="Layer_1" xmlns="http://www.w3.org/2000/svg" xmlns:xlink="http://www.w3.org/1999/xlink" x="0px" y="0px"
	 viewBox="0 0 400 400" style="enable-background:new 0 0 400 400;" xml:space="preserve">
<style type="text/css">
	.st0{fill:#FFFFFF;}
	.st1{fill:none;stroke:#00A99D;stroke-width:40;stroke-miterlimit:10;}
	.st2{fill:none;stroke:#000000;stroke-width:40;stroke-miterlimit:10;}
</style>
<path class="st0" d="M296.4,400H103.6C46.4,400,0,353.6,0,296.4V103.6C0,46.4,46.4,0,103.6,0h192.7C353.6,0,400,46.4,400,103.6
	v192.7C400,353.6,353.6,400,296.4,400z"/>
<g>
	<line class="st1" x1="229" y1="110" x2="229" y2="290"/>
	<line class="st2" x1="172" y1="110" x2="172" y2="290"/>
</g>
<g>
	<path d="M299,150c27.6,0,50,22.4,50,50s-22.4,50-50,50s-50-22.4-50-50S271.4,150,299,150 M299,110c-49.7,0-90,40.3-90,90
		s40.3,90,90,90s90-40.3,90-90S348.7,110,299,110L299,110z"/>
</g>
<g>
	<path d="M102,150c27.6,0,50,22.4,50,50s-22.4,50-50,50s-50-22.4-50-50S74.4,150,102,150 M102,110c-49.7,0-90,40.3-90,90
		s40.3,90,90,90s90-40.3,90-90S151.7,110,102,110L102,110z"/>
</g>
</svg>
