<svg width="417" height="262" viewBox="0 0 417 262" fill="none" xmlns="http://www.w3.org/2000/svg">
<path d="M238 44V224" stroke="#00A99D" stroke-width="40" stroke-miterlimit="10"/>
<path d="M181 44V224" stroke="white" stroke-width="40" stroke-miterlimit="10"/>
<path d="M308 84C335.6 84 358 106.4 358 134C358 161.6 335.6 184 308 184C280.4 184 258 161.6 258 134C258 106.4 280.4 84 308 84ZM308 44C258.3 44 218 84.3 218 134C218 183.7 258.3 224 308 224C357.7 224 398 183.7 398 134C398 84.3 357.7 44 308 44Z" fill="white"/>
<path d="M111 84C138.6 84 161 106.4 161 134C161 161.6 138.6 184 111 184C83.4 184 61 161.6 61 134C61 106.4 83.4 84 111 84ZM111 44C61.3 44 21 84.3 21 134C21 183.7 61.3 224 111 224C160.7 224 201 183.7 201 134C201 84.3 160.7 44 111 44Z" fill="white"/>
</svg>
