<?xml version="1.0" encoding="utf-8"?>
<!-- Generator: Adobe Illustrator 22.0.1, SVG Export Plug-In . SVG Version: 6.00 Build 0)  -->
<svg version="1.1" id="Layer_1" xmlns="http://www.w3.org/2000/svg" xmlns:xlink="http://www.w3.org/1999/xlink" x="0px" y="0px"
	 viewBox="0 0 202 53.9" style="enable-background:new 0 0 202 53.9;" xml:space="preserve">
<style type="text/css">
	.st0{fill:#BF2E1B;}
</style>
<path class="st0" d="M17.8,0.2h-14l11,53h21l8.4-32.5l6,32h21l12-53h-14l-8.3,42l-9.7-42h-15l-10,42L17.8,0.2z M100.8,53.7h-14v-53
	h22l10.4,33.5l9-33h23l1,53h-14l0.7-42l-13.7,42h-12l-14-40L100.8,53.7z M198.2-0.3h-38v54.5h38V41.7h-24.4v-10h23.4v-10h-23.4V11.2
	h24.4V-0.3z"/>
</svg>
