<?xml version="1.0" encoding="utf-8"?>
<!-- Generator: Adobe Illustrator 22.0.1, SVG Export Plug-In . SVG Version: 6.00 Build 0)  -->
<svg version="1.1" id="Layer_1" xmlns="http://www.w3.org/2000/svg" xmlns:xlink="http://www.w3.org/1999/xlink" x="0px" y="0px"
	 viewBox="0 0 512 512" style="enable-background:new 0 0 512 512;" xml:space="preserve">
<style type="text/css">
	.st0{fill:none;stroke:#FFFFFF;stroke-width:10;stroke-linecap:round;stroke-linejoin:round;stroke-miterlimit:10;}
</style>
<g id="Page-1">
	<g id="icon-96-folders">
		<path id="folders" class="st0" d="M446.1,263.7v153.3c0,16.1-13,29.2-29.1,29.2H51.1C35.2,446.2,22,433.1,22,417V263.7v-22.3l0,0
			v-87.9c0-16.1,13.1-29.1,29.3-29.1h160.8l29.2,58.4h175.4c16.3,0,29.3,13.1,29.3,29.2v29.3L446.1,263.7z M65.8,104.3L65.8,104.3
			L65.8,104.3v-9.2c0-16.1,13.1-29.1,29.3-29.1H245l29.2,58.4h186.4c16.3,0,29.3,13.1,29.3,29.2v204.9c0,16.1-7.6,29.2-23.6,29.2
			h-0.1"/>
	</g>
</g>
<g>
	<path class="st0" d="M210.7,267.9c0,18.5-7.5,35-19.6,47.1c-12.1,12.1-28.8,19.6-47.1,19.6c-36.8,0-66.7-29.9-66.7-66.7
		s29.9-66.7,66.7-66.7S210.7,231.1,210.7,267.9z"/>
	<line class="st0" x1="260.2" y1="391.7" x2="191.2" y2="315"/>
</g>
</svg>
