<?xml version="1.0" encoding="utf-8"?>
<!-- Generator: Adobe Illustrator 23.0.3, SVG Export Plug-In . SVG Version: 6.00 Build 0)  -->
<svg version="1.1" id="Layer_1" xmlns:serif="http://www.serif.com/"
	 xmlns="http://www.w3.org/2000/svg" xmlns:xlink="http://www.w3.org/1999/xlink" x="0px" y="0px" viewBox="0 0 128 128"
	 style="enable-background:new 0 0 128 128;" xml:space="preserve">
<style type="text/css">
	.st0{fill:none;stroke:#888888;stroke-width:5;stroke-linecap:round;stroke-linejoin:round;stroke-miterlimit:10;}
</style>
<path id="folders" class="st0" d="M111.5,65.9v38.3c0,4-3.2,7.3-7.3,7.3H12.8c-4,0-7.3-3.3-7.3-7.3V65.9v-5.6v-22
	c0-4,3.3-7.3,7.3-7.3H53l7.3,14.6h43.9c4.1,0,7.3,3.3,7.3,7.3v7.3V65.9z M16.5,26.1v-2.3c0-4,3.3-7.3,7.3-7.3h37.5l7.3,14.6h46.6
	c4.1,0,7.3,3.3,7.3,7.3v51.2c0,4-1.9,7.3-5.9,7.3l0,0"/>
<g>
	<path class="st0" d="M52.7,67c0,4.6-1.9,8.8-4.9,11.8s-7.2,4.9-11.8,4.9c-9.2,0-16.7-7.5-16.7-16.7S26.8,50.3,36,50.3
		S52.7,57.8,52.7,67z"/>
	<path class="st0" d="M65.1,97.9L47.8,78.8"/>
</g>
</svg>
