<?xml version="1.0" encoding="UTF-8" standalone="no"?>
<!DOCTYPE svg PUBLIC "-//W3C//DTD SVG 1.1//EN" "http://www.w3.org/Graphics/SVG/1.1/DTD/svg11.dtd">
<svg width="100%" height="100%" viewBox="0 0 512 512" version="1.1" xmlns="http://www.w3.org/2000/svg" xmlns:xlink="http://www.w3.org/1999/xlink" xml:space="preserve" xmlns:serif="http://www.serif.com/" style="fill-rule:evenodd;clip-rule:evenodd;stroke-linecap:round;stroke-linejoin:round;stroke-miterlimit:10;">
    <path id="folders" d="M446.1,263.7L446.1,417C446.1,433.1 433.1,446.2 417,446.2L51.1,446.2C35.2,446.2 22,433.1 22,417L22,263.7L22,241.4L22,153.5C22,137.4 35.1,124.4 51.3,124.4L212.1,124.4L241.3,182.8L416.7,182.8C433,182.8 446,195.9 446,212L446,241.3L446.1,263.7ZM65.8,104.3L65.8,95.1C65.8,79 78.9,66 95.1,66L245,66L274.2,124.4L460.6,124.4C476.9,124.4 489.9,137.5 489.9,153.6L489.9,358.5C489.9,374.6 482.3,387.7 466.3,387.7L466.2,387.7" style="fill:none;fill-rule:nonzero;stroke:white;stroke-width:20px;"/>
    <g>
        <path d="M210.7,267.9C210.7,286.4 203.2,302.9 191.1,315C179,327.1 162.3,334.6 144,334.6C107.2,334.6 77.3,304.7 77.3,267.9C77.3,231.1 107.2,201.2 144,201.2C180.8,201.2 210.7,231.1 210.7,267.9Z" style="fill:none;fill-rule:nonzero;stroke:white;stroke-width:20px;"/>
        <path d="M260.2,391.7L191.2,315" style="fill:none;fill-rule:nonzero;stroke:white;stroke-width:20px;"/>
    </g>
</svg>
