<?xml version="1.0" encoding="UTF-8" standalone="no"?>
<!DOCTYPE svg PUBLIC "-//W3C//DTD SVG 1.1//EN" "http://www.w3.org/Graphics/SVG/1.1/DTD/svg11.dtd">
<svg width="100%" height="100%" viewBox="0 0 512 512" version="1.1" xmlns="http://www.w3.org/2000/svg" xmlns:xlink="http://www.w3.org/1999/xlink" xml:space="preserve" xmlns:serif="http://www.serif.com/" style="fill-rule:evenodd;clip-rule:evenodd;stroke-miterlimit:10;">
    <g>
        <g transform="matrix(1.79452,0,0,1.79452,-203.398,-203.398)">
            <path d="M143.3,182.6L368.7,182.6" style="fill:none;fill-rule:nonzero;stroke:black;stroke-width:8.36px;"/>
        </g>
        <g transform="matrix(1.79452,0,0,1.79452,-203.398,-203.398)">
            <rect x="175.3" y="182.6" width="161.5" height="181.4" style="fill:none;stroke:black;stroke-width:8.36px;"/>
        </g>
        <g transform="matrix(1.79452,0,0,1.79452,-203.398,-203.398)">
            <path d="M216.2,220.6L216.2,330.5" style="fill:none;fill-rule:nonzero;stroke:black;stroke-width:8.36px;"/>
        </g>
        <g transform="matrix(1.79452,0,0,1.79452,-203.398,-203.398)">
            <path d="M256,220.6L256,330.5" style="fill:none;fill-rule:nonzero;stroke:black;stroke-width:8.36px;"/>
        </g>
        <g transform="matrix(1.79452,0,0,1.79452,-203.398,-203.398)">
            <path d="M295.8,220.6L295.8,330.5" style="fill:none;fill-rule:nonzero;stroke:black;stroke-width:8.36px;"/>
        </g>
        <g transform="matrix(1.79452,0,0,1.79452,-203.398,-203.398)">
            <rect x="195.2" y="148" width="121.6" height="34.6" style="fill:none;stroke:black;stroke-width:8.36px;"/>
        </g>
    </g>
</svg>
