<?xml version="1.0" encoding="utf-8"?>
<!-- Generator: Adobe Illustrator 22.0.1, SVG Export Plug-In . SVG Version: 6.00 Build 0)  -->
<svg version="1.1" id="Layer_1" xmlns="http://www.w3.org/2000/svg" xmlns:xlink="http://www.w3.org/1999/xlink" x="0px" y="0px"
	 viewBox="0 0 512 512" style="enable-background:new 0 0 512 512;" xml:space="preserve">
<style type="text/css">
	.st0{fill:none;stroke:#FFFFFF;stroke-width:10;stroke-linecap:round;stroke-linejoin:round;stroke-miterlimit:10;}
</style>
<g id="Page-1">
	<g id="icon-96-folders">
		<path id="folders" class="st0" d="M446.1,263.7V417c0,16.1-13,29.2-29.1,29.2H51.1C35.2,446.2,22,433.1,22,417V263.7v-22.3l0,0
			v-87.9c0-16.1,13.1-29.1,29.3-29.1h160.8l29.2,58.4h175.4c16.3,0,29.3,13.1,29.3,29.2v29.3L446.1,263.7z M65.8,104.3L65.8,104.3
			L65.8,104.3v-9.2C65.8,79,78.9,66,95.1,66H245l29.2,58.4h186.4c16.3,0,29.3,13.1,29.3,29.2v204.9c0,16.1-7.6,29.2-23.6,29.2h-0.1"
			/>
	</g>
</g>
<g>
	<polyline class="st0" points="81.8,287.9 146,223.7 210.2,287.9 	"/>
	<line class="st0" x1="146" y1="223.7" x2="146" y2="387.7"/>
</g>
</svg>
