<?xml version="1.0" encoding="utf-8"?>
<!-- Generator: Adobe Illustrator 24.0.2, SVG Export Plug-In . SVG Version: 6.00 Build 0)  -->
<svg version="1.1" id="Layer_1" xmlns="http://www.w3.org/2000/svg" xmlns:xlink="http://www.w3.org/1999/xlink" x="0px" y="0px"
	 viewBox="0 0 512 512" style="enable-background:new 0 0 512 512;" xml:space="preserve">
<style type="text/css">
	.st0{fill:none;stroke:#000000;stroke-width:15;stroke-linecap:round;stroke-linejoin:round;stroke-miterlimit:10;}
</style>
<path class="st0" d="M30.04,294.5V238.5c0-4.75,3.87-8.63,8.66-8.63h96.79l-42.06,73.29H38.72
	C33.91,303.16,30.04,299.25,30.04,294.5z M102.67,419.38l-32.18,21.87c-4.36,2.97-7.4,1.13-6.82-4.12l4.32-37.51
	c0.6-5.2,4.82-7.35,9.36-4.73l24.9,14.28C106.85,411.79,107.03,416.38,102.67,419.38z M129.09,388.17
	c-2.63,4.55-8.51,6.14-13.07,3.5l-24.92-14.31c-4.55-2.6-6.15-8.48-3.52-13.04l35.13-61.17l42.09-73.29l38.17-66.54
	c2.6-4.53,8.51-6.15,13.07-3.5l24.89,14.26c4.57,2.65,6.15,8.52,3.52,13.07l-35.02,61l-31.53,54.99L129.09,388.17z M207.19,303.16
	l42.06-73.29h38.11c14.73,33.5,25.72,56.89,34,73.29H207.19z M365.55,327.74c-9.95-5.03-59.64-119.7-72.38-149.6
	c-12.73-29.95-51.19-109.57-38.78-115.79c8.88-4.41,40.69,58.27,64.47,95.92c13.59,21.5,35.63,62.34,53.19,95.51
	c0.23,0.42,0.45,0.87,0.68,1.31c0.79,1.5,1.58,3,2.36,4.46c0.23,0.42,0.45,0.82,0.65,1.23c0.7,1.31,1.37,2.6,2.05,3.88
	c0.37,0.76,0.76,1.47,1.15,2.15c0.42,0.87,0.87,1.73,1.31,2.55c0.6,1.13,1.2,2.23,1.81,3.33c0.08,0.23,0.18,0.4,0.27,0.6
	c7.61,14.44,13.41,25.57,15.72,29.87c0.18,0.35,0.37,0.68,0.5,0.92c6.11,11.08-5.83,20.34-12.49,23.07
	C379.39,329.92,375.53,332.7,365.55,327.74z M401.94,384.18l-14.99-23.72c-3.1-4.96-1.52-11.03,3.52-13.66l14.28-7.35
	c5.06-2.57,11.36-0.47,14.07,4.68l11.86,22.79c2.68,5.15,0.85,11.79-4.02,14.67l-10.21,6.11
	C411.6,390.66,405.04,389.06,401.94,384.18z M465.76,454.95c-3.15-10.08-27.09-10.74-37.83-25.85
	c-10.74-15.12-1.86-22.84,1.87-26.44C473.29,378.14,465.76,454.95,465.76,454.95z M481,294.5c0,4.75-3.86,8.66-8.66,8.66H425.9
	c-0.63-2.52-1.55-5.01-2.86-7.4c-1.26-2.25-4.8-9.01-9.29-17.56c-6.46-12.31-15.62-29.77-25.52-48.31h84.09
	c4.8,0,8.66,3.88,8.66,8.63v55.98H481z"/>
</svg>
