<?xml version="1.0" encoding="utf-8"?>
<!-- Generator: Adobe Illustrator 21.1.0, SVG Export Plug-In . SVG Version: 6.00 Build 0)  -->
<svg version="1.1" id="Layer_1" xmlns="http://www.w3.org/2000/svg" xmlns:xlink="http://www.w3.org/1999/xlink" x="0px" y="0px"
	 viewBox="0 0 512 512" style="enable-background:new 0 0 512 512;" xml:space="preserve">
<style type="text/css">
	.st0{fill:none;stroke:#000000;stroke-width:5;stroke-miterlimit:10;}
</style>
<path class="st0" d="M132.9,242c0-51.9,42.1-94,94-94"/>
<path class="st0" d="M368.8,296.4c0,51.9-42.1,94-94,94"/>
<g>
	<path class="st0" d="M375.9,11L375.9,11c-9.5,0-19,4.7-19,31.6c-0.2,26.5,13.9,53.2,13.9,53.2s-16-2.3-34-2.3
		c-8.3,0-17.3,0.5-25,1.8c-26.2,4.7-19,46.2-18,55.6c2.5,22.3,3.1,25.4,3.1,25.4v-0.5c0,0,0.5,3.4,3.1,25.4
		c3.6,29.5,19.5,33.1,56.5,34.2c5.9,0,11.5,0.2,16.7,0.2c19.8,0,34.7-0.7,45.2-2c9.2-1.1,30.1-11.9,30.1-11.9H490v-95.1h-41.6
		L418.3,88c0,0-18.2-19.8-25.7-36C386.1,38.5,388.5,11,375.9,11L375.9,11z"/>
	<path class="st0" d="M141.1,501L141.1,501c9.5,0,19-4.7,19-31.6c0.2-26.5-13.9-53.2-13.9-53.2s16,2.3,34,2.3c8.3,0,17.3-0.5,25-1.8
		c26.2-4.7,19-46.2,18-55.6c-2.5-22.3-3.1-25.4-3.1-25.4v0.5c0,0-0.5-3.4-3.1-25.4c-3.6-29.5-19.5-33.1-56.5-34.2
		c-5.9,0-11.5-0.2-16.7-0.2c-19.8,0-34.7,0.7-45.2,2c-9.2,1.1-30.1,11.9-30.1,11.9H26.9v95.1h41.6L98.6,424c0,0,18.2,19.8,25.7,36
		C130.9,473.5,128.5,501,141.1,501L141.1,501z"/>
</g>
</svg>
