<?xml version="1.0" encoding="utf-8"?>
<!-- Generator: Adobe Illustrator 22.0.1, SVG Export Plug-In . SVG Version: 6.00 Build 0)  -->
<svg version="1.1" id="Layer_1" xmlns="http://www.w3.org/2000/svg" xmlns:xlink="http://www.w3.org/1999/xlink" x="0px" y="0px"
	 viewBox="0 0 512 512" style="enable-background:new 0 0 512 512;" xml:space="preserve">
<style type="text/css">
	.st0{fill:none;stroke:#000000;stroke-width:5;stroke-miterlimit:10;}
</style>
<rect x="94.3" y="51" class="st0" width="179" height="407"/>
<rect x="310.9" y="130.8" class="st0" width="109.2" height="327.2"/>
<rect x="171.7" y="420.8" class="st0" width="22.5" height="36.8"/>
<rect x="355.3" y="428.4" class="st0" width="20.5" height="28.4"/>
<line class="st0" x1="119.4" y1="82.9" x2="244.8" y2="82.9"/>
<line class="st0" x1="119.4" y1="117.1" x2="244.8" y2="117.1"/>
<line class="st0" x1="119.4" y1="151.3" x2="244.8" y2="151.3"/>
<line class="st0" x1="119.4" y1="185.5" x2="244.8" y2="185.5"/>
<line class="st0" x1="119.4" y1="219.7" x2="244.8" y2="219.7"/>
<line class="st0" x1="119.4" y1="253.9" x2="244.8" y2="253.9"/>
<line class="st0" x1="119.4" y1="288.1" x2="244.8" y2="288.1"/>
<line class="st0" x1="119.4" y1="322.3" x2="244.8" y2="322.3"/>
<line class="st0" x1="121.1" y1="356.5" x2="246.5" y2="356.5"/>
<line class="st0" x1="330.9" y1="157.6" x2="399.3" y2="157.6"/>
<line class="st0" x1="330.9" y1="191.8" x2="399.3" y2="191.8"/>
<line class="st0" x1="330.9" y1="226" x2="399.3" y2="226"/>
<line class="st0" x1="330.9" y1="260.2" x2="399.3" y2="260.2"/>
<line class="st0" x1="330.9" y1="294.4" x2="399.3" y2="294.4"/>
<line class="st0" x1="330.9" y1="328.6" x2="399.3" y2="328.6"/>
<line class="st0" x1="331.3" y1="362.8" x2="399.7" y2="362.8"/>
<line class="st0" x1="331.3" y1="397" x2="399.7" y2="397"/>
<line class="st0" x1="121.1" y1="390.7" x2="246.5" y2="390.7"/>
<line class="st0" x1="40.6" y1="458" x2="470.4" y2="458"/>
</svg>
