<?xml version="1.0" encoding="utf-8"?>
<!-- Generator: Adobe Illustrator 23.0.1, SVG Export Plug-In . SVG Version: 6.00 Build 0)  -->
<svg version="1.1" id="Layer_1" xmlns="http://www.w3.org/2000/svg" xmlns:xlink="http://www.w3.org/1999/xlink" x="0px" y="0px"
	 viewBox="0 0 512 512" style="enable-background:new 0 0 512 512;" xml:space="preserve">
<style type="text/css">
	.st0{fill:none;stroke:#000000;stroke-width:10;stroke-miterlimit:10;}
</style>
<path class="st0" d="M448.8,412.4h-386c-4.4,0-8-3.6-8-8V199c0-4.4,3.6-8,8-8h386c4.4,0,8,3.6,8,8v205.4
	C456.8,408.8,453.2,412.4,448.8,412.4z"/>
<path class="st0" d="M84.3,179v-24.7c0-4.4,3.6-8,8-8h327.1c4.4,0,8,3.6,8,8V179"/>
<path class="st0" d="M109.3,134.5v-24.7c0-4.4,3.6-8,8-8h277.1c4.4,0,8,3.6,8,8v24.7"/>
<circle class="st0" cx="254.8" cy="300.1" r="44.1"/>
<circle class="st0" cx="164" cy="299.9" r="15.6"/>
<circle class="st0" cx="346.6" cy="299.9" r="15.6"/>
<path class="st0" d="M424.5,352.3c-13.8,0-25,11.7-25,26.1h-287c0-14.4-11.2-26.1-25-26.1V250.8c13.8,0,25-11.7,25-26.1h287v1.8
	c0,14.4,11.2,26.1,25,26.1C424.5,252.6,424.5,352.3,424.5,352.3z"/>
</svg>
