<?xml version="1.0" encoding="utf-8"?>
<!-- Generator: Adobe Illustrator 22.0.1, SVG Export Plug-In . SVG Version: 6.00 Build 0)  -->
<svg version="1.1" id="Layer_1" xmlns="http://www.w3.org/2000/svg" xmlns:xlink="http://www.w3.org/1999/xlink" x="0px" y="0px"
	 viewBox="0 0 512 512" style="enable-background:new 0 0 512 512;" xml:space="preserve">
<style type="text/css">
	.st0{fill:none;stroke:#000000;stroke-width:10;stroke-miterlimit:10;}
</style>
<polyline class="st0" points="350.9,111 92.4,111 92.4,416.9 399.4,416.9 399.4,158.4 "/>
<g>
	<path d="M439.5,61.2c1.9,0,3.8,0.8,5.8,2.7c7.3,7.1-7.2,18.5-7.2,18.5L248.6,271.5h-10.8v-12.1c0,0,142-142,189.8-189.8
		C429.6,67.6,434.1,61.2,439.5,61.2 M439.5,51.2L439.5,51.2c-9,0-15.2,7-18.2,10.4c-0.3,0.3-0.7,0.8-0.8,0.9L230.8,252.3l-2.9,2.9
		v4.1v12.1v10h10h10.8h4.1l2.9-2.9L444.9,89.8c3.4-2.7,12-10.7,12.5-20.4c0.3-4.8-1.5-9.3-5-12.7C447.6,52.1,442.8,51.2,439.5,51.2
		L439.5,51.2z"/>
</g>
</svg>
