<?xml version="1.0" encoding="utf-8"?>
<!-- Generator: Adobe Illustrator 22.1.0, SVG Export Plug-In . SVG Version: 6.00 Build 0)  -->
<svg version="1.1" id="Layer_1" xmlns="http://www.w3.org/2000/svg" xmlns:xlink="http://www.w3.org/1999/xlink" x="0px" y="0px"
	 viewBox="0 0 250 250" style="enable-background:new 0 0 250 250;" xml:space="preserve">
<style type="text/css">
	.st0{fill:none;stroke:#000000;stroke-width:6;stroke-miterlimit:10;}
	.st1{font-family:'ArialMT';}
	.st2{font-size:58.3615px;}
</style>
<path class="st0" d="M132.9,173.4c0,0,18-10.2,22.6-12.6c4.7-2.5,9.6-3.1,12.5-1.2c4.5,2.6,41.8,27.6,44.9,29.8
	c3.1,2.2,4.7,8.6,0.4,14.7c-4.2,6.1-24.1,30.6-32.6,30.3c-8.4-0.2-43.4-1-109.6-67.1C4.9,100.7,4.3,65.7,3.9,57.3
	c-0.2-8.4,24-28.3,30.3-32.6s12.5-2.6,14.7,0.4C51.5,28.6,76,65.7,78.8,70c1.9,2.9,1.2,7.7-1.2,12.5c-2.5,4.7-12.6,22.6-12.6,22.6
	s7.1,12.2,31.6,36.7C120.7,166,132.9,173.4,132.9,173.4z"/>
<text transform="matrix(1 0 0 1 158.7362 99.8976)" class="st1 st2">i</text>
<circle class="st0" cx="164.8" cy="80.1" r="51.9"/>
</svg>
