<?xml version="1.0" encoding="utf-8"?>
<!-- Generator: Adobe Illustrator 24.1.3, SVG Export Plug-In . SVG Version: 6.00 Build 0)  -->
<svg version="1.1" id="Layer_1" xmlns="http://www.w3.org/2000/svg" xmlns:xlink="http://www.w3.org/1999/xlink" x="0px" y="0px"
	 viewBox="0 0 512 512" style="enable-background:new 0 0 512 512;" xml:space="preserve">
<style type="text/css">
	.st0{fill:#FFFFFF;stroke:#000000;stroke-width:5;stroke-linecap:round;stroke-linejoin:round;stroke-miterlimit:10;}
	.st1{fill:none;stroke:#000000;stroke-width:5;stroke-linecap:round;stroke-linejoin:round;stroke-miterlimit:10;}
	.st2{fill:none;stroke:#000000;stroke-width:5;stroke-miterlimit:10;}
</style>
<g>
	<path class="st0" d="M200.5,337.1H50.52c-8.54,0-15.53-6.99-15.53-15.53V135.26c0-8.54,6.99-15.53,15.53-15.53h311.95
		c8.54,0,15.53,6.99,15.53,15.53v46.24"/>
	<polyline class="st0" points="251.5,354.5 251.59,377.95 165.25,377.95 165.25,337.1 202.5,337.1 	"/>
	<rect x="141.36" y="377.95" class="st0" width="134.12" height="13.87"/>
</g>
<path class="st1" d="M408.5,353.77H213.91c-6,0-10.91-4.91-10.91-10.91V192.47c0-6,4.91-10.91,10.91-10.91h219.17
	c6,0,10.91,4.91,10.91,10.91v36.03"/>
<g>
	<path class="st2" d="M417.71,373.06h51.58c4.79,0,8.71-3.92,8.71-8.71V237.46c0-4.79-3.92-8.71-8.71-8.71h-51.58
		c-4.79,0-8.71,3.92-8.71,8.71v126.88C409,369.14,412.92,373.06,417.71,373.06z"/>
	<path class="st2" d="M454.77,235.15h-23.23c-1.7,0-3.07-1.38-3.07-3.07V229h29.38v3.07C457.85,233.78,456.47,235.15,454.77,235.15z
		"/>
</g>
</svg>
