<?xml version="1.0" encoding="utf-8"?>
<!-- Generator: Adobe Illustrator 24.1.0, SVG Export Plug-In . SVG Version: 6.00 Build 0)  -->
<svg version="1.1" id="Layer_1" xmlns="http://www.w3.org/2000/svg" xmlns:xlink="http://www.w3.org/1999/xlink" x="0px" y="0px"
	 viewBox="0 0 512 512" style="enable-background:new 0 0 512 512;" xml:space="preserve">
<style type="text/css">
	.st0{fill:none;stroke:#000000;stroke-width:15;stroke-miterlimit:10;}
</style>
<g>
	<rect x="54.2" y="158.2" class="st0" width="319.7" height="319.7"/>
	<path d="M167.4,292.6c-2.5,16.9-10.5,17.2-26.7,17.8l-2.5,0.1v11.8h27.4v77H180v-109h-12.4L167.4,292.6L167.4,292.6z"/>
	<path d="M249.2,325.3c-6.5,0-13.1,2.1-18.3,5.6l4.9-25.4h45.7v-13.8H225l-11,58.9h12.6l0.8-1.2c4.4-6.8,12.4-11.1,20.9-11.1
		c13.8,0,23.9,10.2,23.9,24.3c0,12.8-8,25.7-23.3,25.7c-13.1,0-22.5-8.8-22.9-21.5l-0.1-2.5h-14.5l0.1,2.7
		c0.5,20.6,15.2,34.4,36.6,34.4c21.6,0,38.6-16.6,38.6-37.7C286.6,340.7,271.6,325.2,249.2,325.3L249.2,325.3z"/>
	<line class="st0" x1="54.2" y1="230.6" x2="373.8" y2="230.6"/>
	<polyline class="st0" points="138.1,158.2 138.1,34.1 457.9,34.1 457.9,353.8 373.8,353.8 	"/>
	<line class="st0" x1="138.1" y1="106.5" x2="457.8" y2="106.5"/>
	<g>
		<line class="st0" x1="146.9" y1="196.1" x2="177" y2="196.1"/>
		<line class="st0" x1="252.6" y1="196.1" x2="282.9" y2="196.1"/>
	</g>
	<g>
		<line class="st0" x1="230.9" y1="72" x2="261" y2="72"/>
		<line class="st0" x1="336.6" y1="72" x2="366.9" y2="72"/>
	</g>
</g>
</svg>
