<?xml version="1.0" encoding="utf-8"?>
<!-- Generator: Adobe Illustrator 24.1.3, SVG Export Plug-In . SVG Version: 6.00 Build 0)  -->
<svg version="1.1" id="Layer_1" xmlns="http://www.w3.org/2000/svg" xmlns:xlink="http://www.w3.org/1999/xlink" x="0px" y="0px"
	 viewBox="0 0 1024 1024" style="enable-background:new 0 0 1024 1024;" xml:space="preserve">
<style type="text/css">
	.st0{fill:none;stroke:#000000;stroke-width:15;stroke-miterlimit:10;}
</style>
<path class="st0" d="M128.1,895.5c-28.4,0-51.7-23.3-51.7-51.7V180.2c0-28.4,23.3-51.7,51.7-51.7H447c28.2,0,52,22.6,51.7,50.8
	c-0.5,47.8,38.5,87.1,86.2,87.1h231c19.9,0,36.2,16.3,36.2,36.2v24.1h-612c-33.2,0-60.3,27.1-60.3,60.3v456.8
	C179.8,872.2,156.6,895.5,128.1,895.5L128.1,895.5z"/>
<path class="st0" d="M128.1,895.1L128.1,895.1c-28.4,0-51.7-23.3-51.7-51.7"/>
<path class="st0" d="M128.1,895.1c28.5,0,51.7-23.3,51.7-51.8V386.5c0-33.2,27.1-60.3,60.3-60.3h612h0h34.6
	c33.1,0,60.2,27.1,60.2,60.2v448.5c0,33.1-27.1,60.2-60.2,60.2L128.1,895.1"/>
</svg>
