<?xml version="1.0" encoding="utf-8"?>
<!-- Generator: Adobe Illustrator 22.1.0, SVG Export Plug-In . SVG Version: 6.00 Build 0)  -->
<svg version="1.1" id="Layer_1" xmlns="http://www.w3.org/2000/svg" xmlns:xlink="http://www.w3.org/1999/xlink" x="0px" y="0px"
	 viewBox="0 0 128 128" style="enable-background:new 0 0 128 128;" xml:space="preserve">
<style type="text/css">
	.st0{fill:none;stroke:#000000;stroke-width:6;stroke-linecap:round;stroke-linejoin:round;}
</style>
<path class="st0" d="M8.1,62c-1.8-4.2-3-9.1-3.6-13.6v-0.3v-8.2c0.3-1.2,0.3-2.4,0.6-3.6c1.2-8.2,5.1-15.7,11.2-21.1
	c3.9-3.6,8.8-6,13.9-6.9c3.6-0.9,6.9-0.9,10.3-0.6C44.4,8,48.3,8.9,51.7,11c3.9,1.8,6.9,4.5,9.4,7.5c1.2,1.2,2.1,2.4,3.3,3.6
	l2.1-2.4c2.7-3.3,6-6,9.7-8.5c3.3-1.8,6.9-3.3,11.2-3.6c3.9-0.6,8.2-0.6,11.8,0c4.5,0.9,8.8,2.7,12.1,5.7c6,4.8,10.3,11.5,11.8,19
	c0.6,2.1,0.9,4.2,1.2,6.6c0,0.3,0,0.3,0,0.3v8.2c-0.3,1.2-0.3,2.1-0.6,3.3c-0.6,3.6-1.5,7.5-3.3,11.2"/>
<path class="st0" d="M120.6,62c-1.2,3-2.7,6-4.2,8.8c-3.6,5.7-7.2,11.2-11.8,16c-6.9,7.8-14.5,14.8-22.6,21.1
	c-5.7,4.5-11.2,8.8-17.2,13c-0.3,0.3-0.9,0.3-1.2,0c-9.1-6-17.8-13.3-26-20.5S21.9,85,15.6,75.9c-1.2-1.5-2.1-3.6-3.6-5.4
	c-1.8-2.7-3.3-5.7-4.2-8.8"/>
</svg>
