<?xml version="1.0" encoding="utf-8"?>
<!-- Generator: Adobe Illustrator 24.1.3, SVG Export Plug-In . SVG Version: 6.00 Build 0)  -->
<svg version="1.1" id="Layer_1" xmlns="http://www.w3.org/2000/svg" xmlns:xlink="http://www.w3.org/1999/xlink" x="0px" y="0px"
	 viewBox="0 0 512 512" style="enable-background:new 0 0 512 512;" xml:space="preserve">
<style type="text/css">
	.st0{fill:#FFFFFF;stroke:#000000;stroke-width:10;stroke-linecap:round;stroke-linejoin:round;stroke-miterlimit:10;}
</style>
<path class="st0" d="M457.85,415H53.15C42.07,415,33,405.93,33,394.85v-277.7C33,106.07,42.07,97,53.15,97h404.7
	c11.08,0,20.15,9.07,20.15,20.15v277.7C478,405.93,468.93,415,457.85,415z"/>
<path class="st0" d="M456.3,402.49H55.7c-5.33,0-9.7-4.36-9.7-9.7V119.21c0-5.33,4.36-9.7,9.7-9.7H456.3c5.33,0,9.7,4.36,9.7,9.7
	v273.58C466,398.12,461.64,402.49,456.3,402.49z"/>
</svg>
