<?xml version="1.0" encoding="utf-8"?>
<!-- Generator: Adobe Illustrator 22.0.1, SVG Export Plug-In . SVG Version: 6.00 Build 0)  -->
<svg version="1.1" id="Layer_1" xmlns="http://www.w3.org/2000/svg" xmlns:xlink="http://www.w3.org/1999/xlink" x="0px" y="0px"
	 viewBox="0 0 512 512" style="enable-background:new 0 0 512 512;" xml:space="preserve">
<style type="text/css">
	.st0{fill:none;stroke:#000000;stroke-width:15;stroke-linejoin:round;stroke-miterlimit:10;}
	.st1{fill:#FFFFFF;stroke:#000000;stroke-width:15;stroke-linejoin:round;stroke-miterlimit:10;}
</style>
<path class="st0" d="M461.4,133.1c17,0,31,13.9,31,31v217.5c0,17-13.9,31-31,31H86.1c-17,0-31-13.9-31-31"/>
<path class="st0" d="M428,379.2H52.7c-17,0-31-13.9-31-31V130.7c0-17,13.9-31,31-31H428c17,0,31,13.9,31,31v217.5
	C459,365.2,445,379.2,428,379.2z"/>
<line class="st1" x1="88.2" y1="177.4" x2="392.5" y2="177.4"/>
<line class="st1" x1="88.2" y1="186" x2="392.5" y2="186"/>
<line class="st1" x1="88.2" y1="194.5" x2="392.5" y2="194.5"/>
<line class="st1" x1="88.2" y1="203" x2="392.5" y2="203"/>
<line class="st1" x1="88.2" y1="239.4" x2="392.5" y2="239.4"/>
<line class="st1" x1="88.2" y1="248.5" x2="392.5" y2="248.5"/>
<line class="st1" x1="88.2" y1="281.9" x2="392.5" y2="281.9"/>
</svg>
