<?xml version="1.0" encoding="utf-8"?>
<!-- Generator: Adobe Illustrator 22.1.0, SVG Export Plug-In . SVG Version: 6.00 Build 0)  -->
<svg version="1.1" id="Capa_1" xmlns="http://www.w3.org/2000/svg" xmlns:xlink="http://www.w3.org/1999/xlink" x="0px" y="0px"
	 viewBox="0 0 452 358" style="enable-background:new 0 0 452 358;" xml:space="preserve">
<style type="text/css">
	.st0{fill:none;stroke:#000000;stroke-width:15;stroke-miterlimit:10;}
</style>
<path id="_x31_1-DSLR_Camera" class="st0" d="M386.2,62.4h-99.3l-20-33.7c-2-3.3-5.5-5.3-9.3-5.3h-63.1c-3.8,0-7.4,2-9.3,5.3
	l-20,33.7h-32.6V55c0-6-4.9-10.9-10.9-10.9H81.4c-6,0-10.9,4.9-10.9,10.9v7.4h-4.7c-15.1,0-27.3,12.2-27.3,27.3v197.9
	c0,15.1,12.2,27.3,27.3,27.3h320.4c15.1,0,27.3-12.2,27.3-27.3V89.7C413.6,74.6,401.3,62.4,386.2,62.4z M226,258.6
	c-38.6,0-69.9-31.3-69.9-69.9s31.3-69.9,69.9-69.9s69.9,31.3,69.9,69.9S264.6,258.6,226,258.6z M369.2,118.8h-34.1
	c-6,0-10.9-4.9-10.9-10.9S329.1,97,335.1,97h34.1c6,0,10.9,4.9,10.9,10.9C380,113.9,375.2,118.8,369.2,118.8z"/>
</svg>
