<?xml version="1.0" encoding="utf-8"?>
<!-- Generator: Adobe Illustrator 22.1.0, SVG Export Plug-In . SVG Version: 6.00 Build 0)  -->
<svg version="1.1" id="Layer_1" xmlns="http://www.w3.org/2000/svg" xmlns:xlink="http://www.w3.org/1999/xlink" x="0px" y="0px"
	 viewBox="0 0 512 512" style="enable-background:new 0 0 512 512;" xml:space="preserve">
<style type="text/css">
	.st0{display:none;fill:#7F7F7F;}
	.st1{display:none;}
	.st2{display:inline;fill:none;stroke:#FFFFFF;stroke-width:10;stroke-miterlimit:10;}
	.st3{fill:none;stroke:#000000;stroke-width:10;stroke-miterlimit:10;}
</style>
<rect class="st0" width="512" height="512"/>
<g class="st1">
	<path class="st2" d="M189,144.8C189,77,219,53,256,53s67,25,67,91.8"/>
	<polygon class="st2" points="400,118 112,118 97,441 415,441 	"/>
</g>
<g class="st1">
	<line class="st2" x1="199" y1="280" x2="314" y2="280"/>
	<line class="st2" x1="256" y1="222.5" x2="256" y2="337.5"/>
</g>
<g>
	<path class="st3" d="M200.2,131.6c80.8,0,161.7,0,242.5,0"/>
	<path class="st3" d="M69.3,131.6c21.7,0,43.4,0,65.1,0"/>
	<circle class="st3" cx="167.9" cy="131.9" r="32.9"/>
	<path class="st3" d="M288.6,272c51.4,0,102.8,0,154.1,0"/>
	<path class="st3" d="M69.3,272c51.2,0,102.4,0,153.6,0"/>
	<circle class="st3" cx="256" cy="272.3" r="32.9"/>
	<path class="st3" d="M392.4,416.6c16.8,0,33.5,0,50.3,0"/>
	<path class="st3" d="M69.3,416.6c85.7,0,171.4,0,257.1,0"/>
	<circle class="st3" cx="359.7" cy="416.9" r="32.9"/>
</g>
</svg>
