<?xml version="1.0" encoding="utf-8"?>
<!-- Generator: Adobe Illustrator 22.0.1, SVG Export Plug-In . SVG Version: 6.00 Build 0)  -->
<svg version="1.1" id="Layer_1" xmlns="http://www.w3.org/2000/svg" xmlns:xlink="http://www.w3.org/1999/xlink" x="0px" y="0px"
	 viewBox="0 0 512 512" style="enable-background:new 0 0 512 512;" xml:space="preserve">
<style type="text/css">
	.st0{fill:none;stroke:#000000;stroke-width:5;stroke-linejoin:round;stroke-miterlimit:10;}
	.st1{fill:none;stroke:#000000;stroke-width:5;stroke-miterlimit:10;}
</style>
<path class="st0" d="M331.9,383.4h-181l-42.7,44.2l-0.3-44.2h-29c-6.6,0-12-5.4-12-12v-167c0-6.6,5.4-12,12-12h253
	c6.6,0,12,5.4,12,12v167C343.9,378,338.5,383.4,331.9,383.4z"/>
<path class="st0" d="M343.9,284h8.8l42.7,44.2l0.3-44.2h29c6.6,0,12-5.4,12-12V105c0-6.6-5.4-12-12-12h-253c-6.6,0-12,5.4-12,12
	v87.4"/>
<circle class="st1" cx="199.6" cy="289.8" r="51.9"/>
<line class="st1" x1="199.6" y1="279.1" x2="199.6" y2="314.7"/>
<line class="st1" x1="199.6" y1="268.5" x2="199.6" y2="261.1"/>
</svg>
