<?xml version="1.0" encoding="utf-8"?>
<!-- Generator: Adobe Illustrator 23.0.1, SVG Export Plug-In . SVG Version: 6.00 Build 0)  -->
<svg version="1.1" id="Layer_1" xmlns="http://www.w3.org/2000/svg" xmlns:xlink="http://www.w3.org/1999/xlink" x="0px" y="0px"
	 viewBox="0 0 512 512" style="enable-background:new 0 0 512 512;" xml:space="preserve">
<style type="text/css">
	.st0{fill:none;stroke:#000000;stroke-width:10;stroke-miterlimit:10;}
</style>
<path class="st0" d="M484.2,387.5H25.4c-5.2,0-9.5-4.3-9.5-9.5V133.9c0-5.2,4.3-9.5,9.5-9.5h458.7c5.2,0,9.5,4.3,9.5,9.5v244
	C493.7,383.2,489.4,387.5,484.2,387.5z"/>
<circle class="st0" cx="253.6" cy="256" r="52.4"/>
<circle class="st0" cx="145.7" cy="256" r="18.5"/>
<circle class="st0" cx="362.7" cy="256" r="18.5"/>
<path class="st0" d="M455.3,316.3c-16.4,0-29.7,13.9-29.7,31H84.5c0-17.1-13.3-31-29.7-31V195.7c16.4,0,29.7-13.9,29.7-31h341.1v2.1
	c0,17.1,13.3,31,29.7,31C455.3,197.8,455.3,316.3,455.3,316.3z"/>
<line class="st0" x1="181" y1="32" x2="181" y2="54"/>
<line class="st0" x1="181" y1="72" x2="181" y2="94"/>
<line class="st0" x1="181" y1="412.3" x2="181" y2="434.3"/>
<line class="st0" x1="181" y1="452.3" x2="181" y2="474.3"/>
<line class="st0" x1="181" y1="185.7" x2="181" y2="207.7"/>
<line class="st0" x1="181" y1="225.7" x2="181" y2="247.7"/>
<line class="st0" x1="181" y1="265.7" x2="181" y2="287.7"/>
<line class="st0" x1="181" y1="305.7" x2="181" y2="327.7"/>
</svg>
