<?xml version="1.0" encoding="utf-8"?>
<!-- Generator: Adobe Illustrator 25.1.0, SVG Export Plug-In . SVG Version: 6.00 Build 0)  -->
<svg version="1.1" id="Layer_1" xmlns="http://www.w3.org/2000/svg" xmlns:xlink="http://www.w3.org/1999/xlink" x="0px" y="0px"
	 viewBox="0 0 512 512" style="enable-background:new 0 0 512 512;" xml:space="preserve">
<style type="text/css">
	.st0{fill:none;stroke:#000000;stroke-width:15;stroke-miterlimit:10;}
	.st1{fill:none;stroke:#000000;stroke-width:15;stroke-linecap:round;stroke-linejoin:round;stroke-miterlimit:10;}
	.st2{fill:none;stroke:#000000;stroke-width:15;stroke-linecap:round;stroke-miterlimit:10;}
</style>
<path class="st0" d="M262.1,292.3H70c-16.6,0-30.2-13.6-30.2-30.2V70c0-16.6,13.6-30.2,30.2-30.2h192.1c16.6,0,30.2,13.6,30.2,30.2
	v192.1C292.3,278.7,278.7,292.3,262.1,292.3z"/>
<path class="st0" d="M292.3,221.9h151.9c16.6,0,30.2,13.6,30.2,30.2v192.1c0,16.6-13.6,30.2-30.2,30.2H252.1
	c-16.6,0-30.2-13.6-30.2-30.2V292.3"/>
<path class="st1" d="M427,194.5c0-59.3-48.1-107.4-107.4-107.4"/>
<path class="st1" d="M87.2,319.6c0,59.3,48.1,107.4,107.4,107.4"/>
<polyline class="st1" points="110.1,223.8 134.4,167.9 164.8,98.1 222,223.8 "/>
<line class="st1" x1="196.6" y1="174.3" x2="134.4" y2="174.3"/>
<path class="st2" d="M422.1,327.3c0,0-16.8-19.5-36.8-9.3s-24.4,47.8,14.2,56.7"/>
<path class="st2" d="M431,374.5h-88.6c0,0-23.9,0-23.9-23.5c0-27,0-36,0-36"/>
<path class="st2" d="M271.1,401.4c0,0,20.4,10.6,34.1,0.4c13.7-10.2,13.3-24.4,13.3-28.8s0-22.1,0-22.1"/>
</svg>
