<?xml version="1.0" encoding="utf-8"?>
<!-- Generator: Adobe Illustrator 21.0.0, SVG Export Plug-In . SVG Version: 6.00 Build 0)  -->
<svg version="1.1" id="Layer_1" xmlns="http://www.w3.org/2000/svg" xmlns:xlink="http://www.w3.org/1999/xlink" x="0px" y="0px"
	 viewBox="0 0 100 100" style="enable-background:new 0 0 100 100;" xml:space="preserve">
<g>
	<g>
		<path d="M73.7,41.2"/>
	</g>
	<path d="M80.7,35.2C79.9,22,69,11.5,56,11.5c-7.9,0-15.6,3.9-20.4,10.3c-0.1-0.1-0.2-0.1-0.3-0.2c-0.3-0.1-0.6-0.3-0.9-0.4
		c-0.2-0.1-0.3-0.1-0.5-0.2c-0.3-0.1-0.6-0.2-0.9-0.3c-0.2,0-0.3-0.1-0.5-0.1c-0.3-0.1-0.7-0.1-1-0.2c-0.1,0-0.3-0.1-0.4-0.1
		c-0.5-0.1-1-0.1-1.5-0.1c-7.3,0-13.2,5.9-13.2,13.2c0,0.2,0,0.4,0,0.6C10.3,37.3,6.2,44.3,6.2,51.3c0,10.4,8.4,18.8,18.8,18.8h13.5
		c0.8,0,1.5-0.7,1.5-1.5c0-0.8-0.7-1.5-1.5-1.5H24.9c-8.7,0-15.8-7.1-15.8-15.9c0-6.1,4-12.4,9.4-15l0.8-0.4v-0.9c0-0.2,0-0.4,0-0.6
		l0-0.3l0-0.3c0-0.1,0-0.3,0-0.4c0-5.7,4.6-10.3,10.2-10.3c0.4,0,0.9,0,1.3,0.1c0.1,0,0.2,0,0.3,0c0.4,0.1,0.8,0.2,1.2,0.3
		c0,0,0.1,0,0.1,0c0.4,0.1,0.8,0.3,1.2,0.5c0.1,0,0.2,0.1,0.3,0.1c0.3,0.2,0.7,0.4,1,0.6c2.8,1.8,4.7,5,4.7,8.6
		c0,0.8,0.7,1.5,1.5,1.5c0.8,0,1.5-0.7,1.5-1.5c0-4-1.8-7.6-4.7-10.1c4.2-5.5,11.1-9,17.9-9c11.3,0,20.7,9,21.7,20.3
		c-1.5-0.1-3.7-0.2-6,0.2c-0.8,0.1-1.3,0.9-1.2,1.7c0.1,0.7,0.7,1.2,1.4,1.2c0.1,0,0.1,0,0.2,0c3.2-0.5,6.6,0,6.8,0
		c6.8,1.3,11.9,7.6,11.9,14.6c0,8.1-6.6,14.7-14.6,14.7H63.5c-0.8,0-1.5,0.7-1.5,1.5c0,0.8,0.7,1.5,1.5,1.5h12.8
		c9.7,0,17.6-7.9,17.6-17.6C93.8,44.4,88.3,37.2,80.7,35.2L80.7,35.2z"/>
	<path d="M51.9,48.5c-0.1-0.1-0.2-0.2-0.4-0.3c-0.3-0.1-0.6-0.1-0.9,0c-0.2,0.1-0.3,0.1-0.4,0.3l-9.7,9.7c-0.5,0.5-0.5,1.2,0,1.7
		c0.2,0.2,0.5,0.4,0.9,0.4c0.3,0,0.6-0.1,0.9-0.4l7.6-7.6v25c0,0.7,0.5,1.2,1.2,1.2c0.7,0,1.2-0.5,1.2-1.2v-25l7.6,7.6
		c0.2,0.2,0.6,0.4,0.9,0.4c0.3,0,0.6-0.1,0.9-0.4c0.5-0.5,0.5-1.2,0-1.7L51.9,48.5z M51.9,48.5"/>
</g>
</svg>
