<?xml version="1.0" encoding="utf-8"?>
<!-- Generator: Adobe Illustrator 21.1.0, SVG Export Plug-In . SVG Version: 6.00 Build 0)  -->
<svg version="1.1" id="Layer_1" xmlns="http://www.w3.org/2000/svg" xmlns:xlink="http://www.w3.org/1999/xlink" x="0px" y="0px"
	 viewBox="0 0 512 512" style="enable-background:new 0 0 512 512;" xml:space="preserve">
<style type="text/css">
	.st0{fill:none;stroke:#000000;stroke-width:5;stroke-linejoin:round;stroke-miterlimit:10;}
</style>
<g>
	<g>
		<path class="st0" d="M256.1,331.8L256.1,331.8c-40.4,0-74.3-33.9-74.3-74.3v-37.8c0-40.4,33.9-74.3,74.3-74.3l0,0
			c40.4,0,74.3,33.9,74.3,74.3v37.8C330.4,297.9,296.5,331.8,256.1,331.8z"/>
		<path class="st0" d="M163.4,324.1c-13.1,0-60.1,17-60.1,31.3V375c0,13.1,11.8,24.7,24.7,24.7h255.8c13.1,0,24.7-11.8,24.7-24.7
			v-19.6c0-13.1-47-31.3-60.1-31.3"/>
	</g>
	<g>
		<path class="st0" d="M312.6,172.6v-3.5c0-30.9,25.9-56.8,56.8-56.8l0,0c30.9,0,56.8,25.9,56.8,56.8V198
			c0,30.9-25.9,56.8-56.8,56.8l0,0c-10.5,0-20.5-3-29.1-8.2"/>
		<path class="st0" d="M375.1,306.6h92.1c10,0,18.9-9,18.9-18.9v-15c0-10-35.9-23.9-45.9-23.9"/>
	</g>
	<g>
		<path class="st0" d="M171.6,246.5c-8.6,5.2-18.5,8.2-29.1,8.2l0,0c-30.9,0-56.8-25.9-56.8-56.8V169c0-30.9,25.9-56.8,56.8-56.8
			l0,0c30.9,0,56.8,25.9,56.8,56.8v3.5"/>
		<path class="st0" d="M71.7,248.9c-10,0-45.9,14-45.9,23.9v15c0,10,9,18.9,18.9,18.9h92.1"/>
	</g>
</g>
</svg>
