<?xml version="1.0" encoding="utf-8"?>
<!-- Generator: Adobe Illustrator 24.1.0, SVG Export Plug-In . SVG Version: 6.00 Build 0)  -->
<svg version="1.1" id="Layer_1" xmlns="http://www.w3.org/2000/svg" xmlns:xlink="http://www.w3.org/1999/xlink" x="0px" y="0px"
	 viewBox="0 0 512 512" style="enable-background:new 0 0 512 512;" xml:space="preserve">
<style type="text/css">
	.st0{fill:none;stroke:#000000;stroke-width:10;stroke-linejoin:round;stroke-miterlimit:10;}
</style>
<path class="st0" d="M199.5,329.5c-50.1,0-92.1-42-92.1-92.1v-46.8c0-50.1,42-92.1,92.1-92.1s92.1,42,92.1,92.1v46.8
	C291.6,287.5,249.6,329.5,199.5,329.5z M84.8,319.9c-16.2,0-74.3,21-74.3,38.7v24.2c0,16.2,14.5,30.7,30.7,30.7h316.6
	c16.2,0,30.7-14.5,30.7-30.7v-24.2c0-16.2-58.2-38.7-74.3-38.7"/>
<path class="st0" d="M229.8,103.7c9.5-3.4,19.6-5.2,30.1-5.2c50.1,0,92.1,42,92.1,92.1v46.8c0,30.1-15.2,57.4-38.3,74.3
	 M365.9,413.5h52.2c16.2,0,30.7-14.5,30.7-30.7v-24.2c0-16.2-58.2-38.7-74.3-38.7 M145.2,319.9"/>
<path class="st0" d="M285.3,103.7c9.5-3.4,19.6-5.2,30.1-5.2c50.1,0,92.1,42,92.1,92.1v46.8c0,30.1-15.2,57.4-38.3,74.3
	 M421.5,413.5h52.2c16.2,0,30.7-14.5,30.7-30.7v-24.2c0-16.2-58.2-38.7-74.3-38.7 M200.7,319.9"/>
</svg>
