<?xml version="1.0" encoding="utf-8"?>
<!-- Generator: Adobe Illustrator 24.1.3, SVG Export Plug-In . SVG Version: 6.00 Build 0)  -->
<svg version="1.1" id="Layer_1" xmlns="http://www.w3.org/2000/svg" xmlns:xlink="http://www.w3.org/1999/xlink" x="0px" y="0px"
	 viewBox="0 0 512 512" style="enable-background:new 0 0 512 512;" xml:space="preserve">
<style type="text/css">
	.st0{fill:none;stroke:#000000;stroke-width:10;stroke-linejoin:round;stroke-miterlimit:10;}
</style>
<path class="st0" d="M201.92,326.47c-48.03,0-88.3-40.27-88.3-88.3V193.3c0-48.03,40.27-88.3,88.3-88.3s88.3,40.27,88.3,88.3v44.87
	C290.22,286.2,249.96,326.47,201.92,326.47z M91.96,317.26c-15.53,0-71.23,20.13-71.23,37.1v23.2c0,15.53,13.9,29.43,29.43,29.43
	h303.53c15.53,0,29.43-13.9,29.43-29.43v-23.2c0-15.53-55.8-37.1-71.23-37.1"/>
<path class="st0" d="M268.56,132.87c7.92-2.83,16.34-4.34,25.1-4.34c41.77,0,76.79,35.02,76.79,76.79v39.02
	c0,25.1-12.67,47.86-31.93,61.95 M382.04,391.18h43.52c13.51,0,25.6-12.09,25.6-25.6v-20.18c0-13.51-48.53-32.27-61.95-32.27"/>
<path class="st0" d="M368.52,175.41c5.52-1.97,11.38-3.02,17.48-3.02c29.1,0,53.49,24.39,53.49,53.49v27.18
	c0,17.48-8.83,33.34-22.24,43.15 M447.63,355.34h30.32c9.41,0,17.83-8.42,17.83-17.83v-14.06c0-9.41-33.8-22.48-43.15-22.48"/>
</svg>
