<?xml version="1.0" encoding="utf-8"?>
<!-- Generator: Adobe Illustrator 24.0.3, SVG Export Plug-In . SVG Version: 6.00 Build 0)  -->
<svg version="1.1" id="Layer_1" xmlns="http://www.w3.org/2000/svg" xmlns:xlink="http://www.w3.org/1999/xlink" x="0px" y="0px"
	 viewBox="0 0 512 512" style="enable-background:new 0 0 512 512;" xml:space="preserve">
<style type="text/css">
	.st0{fill:none;stroke:#010202;stroke-width:10;stroke-miterlimit:10;}
</style>
<g>
	<path class="st0" d="M55.8,311.35H244c6.6,0,12-5.4,12-12v-56.99c0-6.6-5.4-12-12-12H55.8c-6.6,0-12,5.4-12,12v56.99
		C43.8,305.95,49.2,311.35,55.8,311.35z"/>
	<path class="st0" d="M109.17,469.1h347.93c6.71,0,12.2-5.49,12.2-12.2V323.55c0-6.71-5.49-12.2-12.2-12.2H109.17
		c-6.71,0-12.2,5.49-12.2,12.2V456.9C96.98,463.61,102.47,469.1,109.17,469.1z"/>
	<path class="st0" d="M161.61,469.1H244c6.6,0,12-5.4,12-12v-82.39c0-6.6-5.4-12-12-12h-82.39c-6.6,0-12,5.4-12,12v82.39
		C149.61,463.7,155.01,469.1,161.61,469.1z"/>
	<line class="st0" x1="308.75" y1="311.35" x2="308.75" y2="469.1"/>
	<line class="st0" x1="361.8" y1="311.35" x2="361.8" y2="469.1"/>
	<line class="st0" x1="414.86" y1="311.35" x2="414.86" y2="469.1"/>
	<line class="st0" x1="96.98" y1="230.37" x2="96.98" y2="311.35"/>
	<line class="st0" x1="149.61" y1="230.37" x2="149.61" y2="311.35"/>
	<line class="st0" x1="202.8" y1="230.37" x2="202.8" y2="311.35"/>
	<path class="st0" d="M457.3,44.82H268c-6.6,0-12,5.4-12,12v242.53c0,6.6,5.4,12,12,12h189.3c6.6,0,12-5.4,12-12V56.82
		C469.3,50.22,463.9,44.82,457.3,44.82z"/>
	<path class="st0" d="M427.59,197.69H302.76c-6.6,0-12-5.4-12-12v-62.33c0-6.6,5.4-12,12-12h124.82c6.6,0,12,5.4,12,12v62.33
		C439.59,192.29,434.19,197.69,427.59,197.69z"/>
</g>
</svg>
