<?xml version="1.0" encoding="utf-8"?>
<!-- Generator: Adobe Illustrator 22.1.0, SVG Export Plug-In . SVG Version: 6.00 Build 0)  -->
<svg version="1.1" id="Layer_1" xmlns="http://www.w3.org/2000/svg" xmlns:xlink="http://www.w3.org/1999/xlink" x="0px" y="0px"
	 viewBox="0 0 128 128" style="enable-background:new 0 0 128 128;" xml:space="preserve">
<style type="text/css">
	.st0{fill:none;stroke:#000000;stroke-width:5;stroke-miterlimit:10;}
	.st1{fill:none;stroke:#000000;stroke-width:4;stroke-miterlimit:10;}
</style>
<g id="globe-2">
	<polygon class="st0" points="53.1,25.9 53.1,26 53.2,25.9 	"/>
	<path class="st1" d="M63.6,4.8C30.9,4.8,4.2,31.4,4.2,64.2s26.7,59.4,59.4,59.4c32.8,0,59.4-26.7,59.4-59.4
		C123.1,31.4,96.4,4.8,63.6,4.8z M121.7,64.2c0,1.1-0.1,2.2-0.2,3.3c-0.4-1-1-2.4-1.2-3c-0.2-0.9-1.5-3.9-1.5-3.9s-1.3-1.8-2.2-2.2
		c-0.9-0.4-1.5-1.5-3.1-2.4c-1.5-0.9-2.2-1.3-3.5-1.3s-2.6-1.8-4.2-2.6c-1.5-0.9-1.8-0.4-1.8-0.4s1.8,2.6,1.8,3.3s2,1.8,3.9,1.3
		c0,0,1.3,2.4,2,3.1c0.7,0.7-0.2,1.3-1.5,2.2s-1.1,0.7-1.8,1.3c-0.7,0.7-2.8,1.8-3.5,2.2c-0.7,0.4-3.3,1.8-4.6,0.4
		c-0.6-0.6-0.4-2-0.9-2.8c-0.4-0.9-5-7.7-7.2-10.7c-0.4-0.5-1.3-2.2-2-2.6C89.5,49,91.7,49,91.7,49s0-1.5-0.2-2.6s0.2-2.6,0.2-2.6
		s-2.2,1.3-2.9,1.8c-0.7,0.4-1.3-0.9-2.2-2c-0.9-1.1-1.8-2.4-2-3.5s1.1-1.5,1.1-1.5l2-1.1c0,0,2.4-0.4,3.9-0.2s3.9,0.4,3.9,0.4
		s0.7-1.5-0.2-2.2c-0.9-0.7-2.9-1.8-3.7-1.5c-0.9,0.2,0.4-1.1,1.5-2L91,31.2c0,0-2.2,1.1-2.9,1.3c-0.7,0.2-1.8,0.7-2.7,1.8
		c-0.9,1.1,0.4,2.6-0.5,3.1c-0.9,0.4-1.5,0.7-2.1,0.9c-0.7,0.2-2.7,0-2.7,0c-2.3,0-0.8,2.1-0.2,2.8L78.1,39l-1.3-3.1
		c0,0-1.9-1.3-2.7-1.7c-0.9-0.4-3.6-2-3.6-2l0.2,2l2.5,2.6l0.2,0.1l1.3,1.8l-2.9,0.2V37c-2.7-0.7-2-1.3-2.3-1.6
		c-0.7-0.4-2.2-1.5-2.2-1.5s-2.6,0.4-3.2,0.7c-0.7,0.2-0.8,0.9-2.2,1.3c-1.3,0.4-1.9,1.1-2.3,1.8c-0.4,0.7-1.9,2.6-2.7,3.5
		c-0.9,0.9-2.5,0.7-3.2,0.7S49.9,41,49.9,41v-3.7c0,0,0.4-2.1,0.2-2.7l1.9-0.3l3.2-0.7l0.9-0.7l1.3-1.8c0,0-1.5-1.1-0.4-2.6
		c0.5-0.7,2.4-0.9,3.3-1.5c0.9-0.7,2.2-1.1,2.2-1.1s1.5-1.3,3.1-2.8c0,0,1.1-0.7,2.4-1.1c0,0,3.7,3.3,4.4,3.3c0.7,0,3.1-1.5,3.1-1.5
		s0.7-2,0.4-2.6c-0.2-0.7-1.3-2.8-1.3-2.8s-0.7,1.1-1.3,2c-0.7,0.9-1.1,2-1.1,2s-3.1-0.2-3.3-0.9c-0.2-0.7-0.7-1.7-0.9-2.4
		c-0.2-0.7-2-0.6-3.3-0.2C63.5,19,65,16.2,65,16.2s1.3-1.7,2.2-1.7c0.9,0,2.9-1.1,3.7-1.3c0.9-0.2,3.5-1.2,4.6-1.2s2.4,0.5,3.1,0.5
		s3.3,0,3.3,0l4.6-0.4c0,0,3.9,1.5,2.6,2.3c0,0,1.5,0.9,2.2,1.6c0.6,0.6,2.2-0.6,3.1-1.1C110.8,25.3,121.7,43.5,121.7,64.2z
		 M17.3,29.9c0,0.9-1.2,1.1,0,3.3c1.5,2.8,0.2,4.2,0.2,4.2s-3.7,2.6-4.4,3.1c-0.7,0.4-2.4,2.8-1.3,2.2c1.1-0.7,2.4-1.3,1.3,0.4
		c-1.1,1.8-3.1,4.6-3.5,5.7c-0.4,1.1-2.6,3.7-2.6,5s-0.9,3.9-0.7,5c0.1,0.8-0.3,3-0.7,3.9C5.9,50.5,10,39.1,16.9,29.9
		C17.1,29.9,17.3,29.9,17.3,29.9z M24.3,21.5c5.4-4.9,11.6-8.9,18.6-11.5c-0.7,0.9-1.5,1.8-1.5,1.8s-1.5,0-4.4,3.1
		c-2.8,3.1-2.2,2.2-2.8,3.1c-0.7,0.9-0.4,1.1-2,2.2c-1.5,1.1-2.2,2.4-2.2,2.4l-2.4,0.9l-2-0.9c0,0-1.8,0.7-1.5-0.2
		C24.1,22,24.2,21.8,24.3,21.5z M50.5,26.7l-0.9-1.3l0.9-2l2.1,0.8v-3.9l2-1.1l1.7,2.4l2.6,2.9l-1.7,1.3l-4.6,0.9v-2.3L50.5,26.7z
		 M79,47.2c0.5-0.4,2.2,0.7,2.2,0.7s5.5,1.1,6.3,1.8c0.9,0.7,2.4,1.1,2.9,1.8c0.4,0.7,2,2.6,2.2,3.3s1.3,3.1,1.5,3.9
		c0.2,0.9,0.9,3.1,1.5,4.2c0.7,1.1,4.4,5.9,5.7,8.1l4-0.7c0,0-0.4,2-0.9,2.6c-0.4,0.7-1.8,2.4-2.4,3.3c-0.7,0.9-1.5,2.2-2.8,3.3
		c-1.3,1.1-1.3,2.2-2,3.1s-1.5,2.8-1.5,2.8s0.4,4.4,0.7,5.3c0.2,0.9-1.5,3.3-1.5,3.3l-2,2l-2.6,3.5l0.2,3.3c0,0-2,1.5-3.1,2.4
		s-0.9,1.5-1.8,2.4s-4.3,2.4-5.2,2.6c-0.9,0.2-5.7,0.9-5.7,0.9v-2l-0.1-2.2c0,0-0.7-2.6-1.3-3.5c-0.7-0.9-0.4-2.2-1.5-3.3
		c-1.1-1.1-1.5-2-1.7-2.6c-0.2-0.7,0.2-2.6,0.2-2.6s0.9-2.4,1.3-3.3s0-2.2-0.4-3.1s-0.7-3.1-0.7-3.7c0-0.7-1.8-1.8-2.4-2.4
		c-0.7-0.7-0.4-1.5-0.4-2.4s-0.7-2.9-0.4-4.4c0.2-1.5-2-0.4-3.3,0s-2.2-0.4-2.2-1.8s-2.4-0.2-3.9,0.7c-1.5,0.9-3.3,0.9-5,1.5
		c-1.7,0.7-2.6-0.7-2.6-0.7s-1.5-1.3-2.6-2s-2.2-2-3.1-3.1c-0.9-1.1-3.1-4.4-3.3-5.7c-0.2-1.3,0-2.2,0-3.7s0-2.4,0.2-3.5
		s0.9-2.4,1.5-3.5c0.7-1.1,3.1-2.4,3.7-2.8c0.7-0.4,2.2-1.7,2.2-2.6c0-0.9,0.9-1.3,1.3-2.2c0.4-0.9,2-3.1,3.9-2.2
		c0,0,1.7-0.2,2.4-0.4s2.4-0.9,3.3-1.3c0.9-0.4,3.1-0.6,3.1-0.6s1.7,0.7,2.4,0.7c0.7,0,2.8-0.4,2.8-0.4s1,3.2,1,3.8
		c0,0.7,0.7,1.3,1.8,1.8C71.8,47.9,76.8,49,79,47.2z M104.2,90.1c0,0.7-0.2,2.4-0.4,3.3c-0.2,0.9-0.7,2.4-0.9,3.3
		c-0.2,0.9-1.3,2.6-2,3.1c-0.7,0.4-1.8,1.8-2.4,2c-0.7,0.2-1.1-1.5-0.9-2.4s1.3-3.3,1.3-3.3s0.2-1.3,0.4-2.2c0.2-0.9,2.9-2,2.9-2
		l1.8-3.3C104,88.6,104.2,89.5,104.2,90.1z M7,77.1c0.3,0.1,0.7,0.3,1.3,0.8c0.8,0.7,1.3,1.1,2.4,1.5s1.5,1.1,2.8,1.8
		s0.9,0.2,2.6,2.2c1.8,2,1.5,2,2,3.1c0.4,1.1,1.1,2.2,1.5,2.9c0.4,0.7,1.8,1.1,2.4,1.5c0.7,0.4,1.8,0.9,2.4,0.9c0.7,0,2.6,2,3.7,2.2
		s1.1,2.4,1.1,2.4l-1.1,3.1l-0.9,3.3l0.9,2.6c0,0-1.3,1.1-2.2,1.1c-0.8,0-1.1,0.5-2,0.3C15.7,98.8,9.6,88.6,7,77.1z"/>
</g>
</svg>
