<?xml version="1.0" encoding="utf-8"?>
<!-- Generator: Adobe Illustrator 23.1.1, SVG Export Plug-In . SVG Version: 6.00 Build 0)  -->
<svg version="1.1" id="Layer_1" xmlns="http://www.w3.org/2000/svg" xmlns:xlink="http://www.w3.org/1999/xlink" x="0px" y="0px"
	 viewBox="0 0 512 512" style="enable-background:new 0 0 512 512;" xml:space="preserve">
<style type="text/css">
	.st0{fill:none;stroke:#000000;stroke-width:15;stroke-miterlimit:10;}
</style>
<rect x="55" y="180.1" class="st0" width="83.3" height="267.9"/>
<path class="st0" d="M96.1,147.3c-26.3,0-43.3-18.6-43.3-41.6C52.8,82.1,70.3,64,97.1,64s43.3,18.1,43.8,41.6
	C141,128.6,124,147.3,96.1,147.3z"/>
<path class="st0" d="M459.2,448H376V299.6c0-34.5-12.1-58.1-42.2-58.1c-23,0-36.7,15.9-42.7,31.2c-2.2,5.5-2.7,13.1-2.7,20.8V448
	H205V265.6c0-33.4-1.1-61.4-2.2-85.5h72.3l3.8,37.3h1.6c11-17.5,37.8-43.3,82.7-43.3c54.8,0,95.9,36.7,95.9,115.6L459.2,448
	L459.2,448z"/>
</svg>
