<?xml version="1.0" encoding="utf-8"?>
<!-- Generator: Adobe Illustrator 23.1.1, SVG Export Plug-In . SVG Version: 6.00 Build 0)  -->
<svg version="1.1" id="Layer_1" xmlns="http://www.w3.org/2000/svg" xmlns:xlink="http://www.w3.org/1999/xlink" x="0px" y="0px"
	 viewBox="0 0 512 512" style="enable-background:new 0 0 512 512;" xml:space="preserve">
<style type="text/css">
	.st0{fill:none;stroke:#000000;stroke-width:15;stroke-miterlimit:10;}
</style>
<g id="Artboard_1">
	<path id="Path_2081" class="st0" d="M467,126.6c-15.9,6.8-32.8,11.3-49.8,13.6c18.1-10.8,31.7-27.7,37.9-48.1
		c-17,10.2-35.7,17-54.9,20.9c-32.8-35.1-87.8-36.8-122.9-4c-17.6,16.4-27.7,39.6-27.2,63.4c0,6.8,0.6,13,2.3,19.8
		c-69.6-3.4-134.7-36.2-178.9-90.6c-23.2,39.6-11.3,90.6,26.6,116.1c-13.6-0.6-27.2-4-39.1-10.8v1.1c0,41.3,28.9,77,69.6,85.5
		c-7.4,1.7-15.3,2.8-22.6,2.8c-5.7,0-11.3-0.6-16.4-1.7c11.3,35.1,44.2,59.4,81,60.6C142,379.1,104.1,392.1,65,392.1
		c-6.8,0-14.2-0.6-20.9-1.1c39.6,25.5,86.1,39.1,133,39.1C336.8,430,424,297.6,424,183.2c0-4,0-7.4-0.6-11.3
		C440.4,160,455.1,144.1,467,126.6z"/>
</g>
</svg>
