<?xml version="1.0" encoding="utf-8"?>
<!-- Generator: Adobe Illustrator 25.0.1, SVG Export Plug-In . SVG Version: 6.00 Build 0)  -->
<svg version="1.1" id="Layer_1" xmlns="http://www.w3.org/2000/svg" xmlns:xlink="http://www.w3.org/1999/xlink" x="0px" y="0px"
	 viewBox="0 0 1024 1024" style="enable-background:new 0 0 1024 1024;" xml:space="preserve">
<style type="text/css">
	.st0{fill:none;stroke:#000000;stroke-width:20;stroke-miterlimit:10;}
</style>
<g id="Artboard_1">
	<g id="Group_2100" transform="translate(10.464 10.539)">
		<path id="Path_2081" class="st0" d="M71.5,932.4l60.3-213.7c-120.6-204.5-52.4-468,152.1-588.6s468-52.4,588.6,152.1
			s52.4,468-152.1,588.6c-131.1,77.3-295,78.7-427.4,3.9L71.5,932.4z"/>
		<path id="Path_2082" class="st0" d="M388.8,288.7l-26.2-1.3c-7.9,0-17,2.6-22.3,9.2c-19.7,18.4-32.8,42-39.3,68.2
			c-9.2,47.2,5.2,103.6,42,161.2c36.7,57.7,107.5,148.1,230.7,187.5c31.5,11.8,68.2,6.6,95.7-13.1c19.7-14.4,32.8-36.7,36.7-60.3
			l3.9-22.3c1.3-6.6-1.3-13.1-7.9-17l-89.1-45.9c-6.6-2.6-13.1-1.3-17,5.2l-35.4,51.1c-2.6,3.9-6.6,5.2-11.8,3.9
			c-65.5-27.5-119.3-77.3-148.1-141.6c-2.6-3.9-1.3-9.2,1.3-13.1l34.1-43.3c3.9-5.2,3.9-10.5,2.6-15.7l-38-100.9
			C397.9,292.6,394,288.7,388.8,288.7L388.8,288.7z"/>
	</g>
</g>
</svg>
