<?xml version="1.0" encoding="utf-8"?>
<!-- Generator: Adobe Illustrator 25.0.0, SVG Export Plug-In . SVG Version: 6.00 Build 0)  -->
<svg version="1.1" id="Layer_1" xmlns="http://www.w3.org/2000/svg" xmlns:xlink="http://www.w3.org/1999/xlink" x="0px" y="0px"
	 viewBox="0 0 1000 1000" style="enable-background:new 0 0 1000 1000;" xml:space="preserve">
<style type="text/css">
	.st0{fill:none;stroke:#000000;stroke-width:15;stroke-miterlimit:10;}
</style>
<path class="st0" d="M865.1,316.83c-8.75-32.74-34.53-58.53-67.28-67.28c-59.35-15.9-297.32-15.9-297.32-15.9s-237.97,0-297.32,15.9
	c-32.74,8.75-58.53,34.53-67.28,67.28C120,376.18,120,500,120,500s0,123.82,15.9,183.16c8.75,32.74,34.54,58.53,67.28,67.28
	c59.35,15.9,297.32,15.9,297.32,15.9s237.97,0,297.32-15.9c32.74-8.75,58.53-34.54,67.28-67.28C881,623.83,881,500,881,500
	S881,376.18,865.1,316.83L865.1,316.83z M424.4,614.16v-228.3L622.11,500L424.4,614.16L424.4,614.16z"/>
</svg>
