<?xml version="1.0" encoding="utf-8"?>
<!-- Generator: Adobe Illustrator 22.1.0, SVG Export Plug-In . SVG Version: 6.00 Build 0)  -->
<svg version="1.1" id="Layer_1" xmlns="http://www.w3.org/2000/svg" xmlns:xlink="http://www.w3.org/1999/xlink" x="0px" y="0px"
	 viewBox="0 0 512 512" style="enable-background:new 0 0 512 512;" xml:space="preserve">
<style type="text/css">
	.st0{display:none;fill:#7F7F7F;}
	.st1{display:none;}
	.st2{display:inline;fill:none;stroke:#FFFFFF;stroke-width:10;stroke-miterlimit:10;}
	.st3{fill:none;stroke:#000000;stroke-width:10;stroke-miterlimit:10;}
</style>
<rect class="st0" width="512" height="512"/>
<g class="st1">
	<path class="st2" d="M189,144.8C189,77,219,53,256,53s67,25,67,91.8"/>
	<polygon class="st2" points="400,118 112,118 97,441 415,441 	"/>
</g>
<g class="st1">
	<line class="st2" x1="199" y1="280" x2="314" y2="280"/>
	<line class="st2" x1="256" y1="222.5" x2="256" y2="337.5"/>
</g>
<g>
	<path class="st3" d="M273.2,253.9c-8,9.5-31.6,37.3-68.1,37.3c-36.6,0-60.1-28-68.2-37.4"/>
	<path class="st3" d="M275.7,322.5c-2.9-31.1-4.5-83.1-2.2-170.2c0,0,5.2-39.4-34.2-41.4c-39.4-2.1-34.2-2.1-34.2-2.1l0,0
		c0,0,5.2,0-34.2,2.1s-34.2,41.4-34.2,41.4c6.3,232.1-15.5,215.5-15.5,215.5s-59.1,4.1-38.4-27s20.7-245.6,20.7-245.6"/>
	<path class="st3" d="M306.7,95.4c1.5,115.2,5.9,181.1,11.9,216"/>
	<path class="st3" d="M110.4,64.6c-4.8,7,3.2-7,8-13.4C129.2,37,161.5,17.8,205,16.7l0,0c52.8,2.1,73.4,17.1,86.7,34.5
		c5.1,6.6,11.7,18.4,11.7,18.4"/>
	<path class="st3" d="M308.7,90.6H101.5c-5.7,0-10.4-4.7-10.4-10.4l0,0c0-5.7,4.7-10.4,10.4-10.4h207.2c5.7,0,10.4,4.7,10.4,10.4
		l0,0C319.1,86,314.4,90.6,308.7,90.6z"/>
	<line class="st3" x1="196.8" y1="319.2" x2="196.8" y2="397.7"/>
	<line class="st3" x1="91.8" y1="311.2" x2="24.8" y2="335.8"/>
	<path class="st3" d="M136,304.3c0,0,53,35.9,137.2,0"/>
	<line class="st3" x1="152.5" y1="272.2" x2="152.5" y2="307.8"/>
	<line class="st3" x1="258.2" y1="272.2" x2="258.2" y2="307.8"/>
</g>
<g>
	<line class="st3" x1="385" y1="260.5" x2="385" y2="492.5"/>
	<line class="st3" x1="269" y1="376.5" x2="501" y2="376.5"/>
</g>
</svg>
