<?xml version="1.0" encoding="utf-8"?>
<!-- Generator: Adobe Illustrator 22.1.0, SVG Export Plug-In . SVG Version: 6.00 Build 0)  -->
<svg version="1.1" id="Layer_1" xmlns="http://www.w3.org/2000/svg" xmlns:xlink="http://www.w3.org/1999/xlink" x="0px" y="0px"
	 viewBox="0 0 512 512" style="enable-background:new 0 0 512 512;" xml:space="preserve">
<style type="text/css">
	.st0{display:none;fill:#7F7F7F;}
	.st1{display:none;}
	.st2{display:inline;fill:none;stroke:#FFFFFF;stroke-width:10;stroke-miterlimit:10;}
	.st3{fill:none;stroke:#000000;stroke-width:10;stroke-miterlimit:10;}
</style>
<rect class="st0" width="512" height="512"/>
<g class="st1">
	<path class="st2" d="M189,144.8C189,77,219,53,256,53s67,25,67,91.8"/>
	<polygon class="st2" points="400,118 112,118 97,441 415,441 	"/>
</g>
<g class="st1">
	<line class="st2" x1="199" y1="280" x2="314" y2="280"/>
	<line class="st2" x1="256" y1="222.5" x2="256" y2="337.5"/>
</g>
<g>
	<path class="st3" d="M342.7,320.3c-10.2,12.1-40.4,47.7-87.1,47.7c-46.8,0-76.9-35.8-87.3-47.9"/>
	<path class="st3" d="M385.6,117.4c2.7,213,13.4,294.5,26.5,314.3c26.5,39.8-49.1,34.5-49.1,34.5s-27.8,21.2-19.9-275.8
		c0,0,6.6-50.4-43.8-53c-50.4-2.7-43.8-2.7-43.8-2.7l0,0c0,0,6.6,0-43.8,2.7s-43.8,53-43.8,53c8,297.1-19.9,275.8-19.9,275.8
		s-75.6,5.3-49.1-34.5s26.5-314.3,26.5-314.3"/>
	<path class="st3" d="M134.4,78c-6.1,8.9,4.1-9,10.3-17.2c13.8-18.2,55.2-42.8,110.9-44.2l0,0c67.6,2.7,93.9,21.9,111,44.2
		c6.5,8.5,15,23.5,15,23.5"/>
	<path class="st3" d="M388.2,111.3H123c-7.3,0-13.3-6-13.3-13.3l0,0c0-7.3,6-13.3,13.3-13.3h265.2c7.3,0,13.3,6,13.3,13.3l0,0
		C401.5,105.4,395.5,111.3,388.2,111.3z"/>
	<line class="st3" x1="245" y1="403.9" x2="245" y2="504.4"/>
	<line class="st3" x1="110.5" y1="393.7" x2="24.8" y2="425.1"/>
	<line class="st3" x1="401.5" y1="393.7" x2="487.1" y2="425.1"/>
	<path class="st3" d="M167.1,384.8c0,0,67.8,45.9,175.6,0"/>
	<line class="st3" x1="188.2" y1="343.8" x2="188.2" y2="389.3"/>
	<line class="st3" x1="323.5" y1="343.8" x2="323.5" y2="389.3"/>
</g>
</svg>
