<?xml version="1.0" encoding="utf-8"?>
<!-- Generator: Adobe Illustrator 24.1.3, SVG Export Plug-In . SVG Version: 6.00 Build 0)  -->
<svg version="1.1" id="Layer_1" xmlns="http://www.w3.org/2000/svg" xmlns:xlink="http://www.w3.org/1999/xlink" x="0px" y="0px"
	 viewBox="0 0 512 512" style="enable-background:new 0 0 512 512;" xml:space="preserve">
<style type="text/css">
	.st0{fill:none;stroke:#000000;stroke-width:10;stroke-miterlimit:10;}
</style>
<path class="st0" d="M267.09,19.6C138.06,19.6,73,112.1,73,189.26c0,46.71,17.68,88.26,55.61,103.73c6.22,2.56,11.8,0.09,13.6-6.79
	c1.25-4.75,4.23-16.77,5.55-21.8c1.81-6.81,1.11-9.18-3.91-15.14c-10.93-12.89-17.93-29.58-17.93-53.25
	c0-68.63,51.35-130.06,133.71-130.06c72.93,0,113,44.56,113,104.06c0,78.31-34.65,144.4-86.09,144.4
	c-28.42,0-49.67-23.49-42.87-52.31c8.16-34.41,23.97-71.52,23.97-96.38c0-22.22-11.94-40.76-36.62-40.76
	c-29.04,0-52.38,30.05-52.38,70.29c0,25.63,8.66,42.97,8.66,42.97s-29.72,125.93-34.93,147.98c-10.37,43.92-1.56,97.75-0.81,103.19
	c0.44,3.23,4.58,4.01,6.46,1.58c2.67-3.5,37.28-46.2,49.02-88.88c3.33-12.07,19.1-74.64,19.1-74.64
	c9.44,18.01,37.02,33.83,66.35,33.83c87.29,0,146.52-79.58,146.52-186.1C439.01,94.62,370.78,19.6,267.09,19.6z"/>
</svg>
