<?xml version="1.0" encoding="utf-8"?>
<!-- Generator: Adobe Illustrator 22.0.1, SVG Export Plug-In . SVG Version: 6.00 Build 0)  -->
<svg version="1.1" id="Layer_1" xmlns="http://www.w3.org/2000/svg" xmlns:xlink="http://www.w3.org/1999/xlink" x="0px" y="0px"
	 viewBox="0 0 86 86" style="enable-background:new 0 0 86 86;" xml:space="preserve">
<style type="text/css">
	.st0{fill:none;stroke:#000000;stroke-miterlimit:10;}
</style>
<g id="Artboard_1">
	<path id="Path_2080" class="st0" d="M76.5,32.7L57,13.2c-0.9-0.9-2.5-0.9-3.4,0c0,0,0,0,0,0c-0.5,0.4-0.7,1.1-0.7,1.7v9.8h-8.6
		C26.1,24.6,15,29.8,10.9,40c-1.5,4.1-2.2,8.4-2.1,12.7c0,4.2,1.6,10,4.9,17.2c0.1,0.2,0.2,0.5,0.4,0.9c0.2,0.4,0.4,0.8,0.5,1.2
		c0.1,0.3,0.3,0.6,0.5,0.8c0.2,0.4,0.6,0.6,1.1,0.6c0.3,0,0.7-0.1,0.9-0.4c0.2-0.3,0.4-0.6,0.3-0.9c0-0.3-0.1-0.7-0.1-1
		c-0.1-0.5-0.1-0.8-0.1-0.9C17.1,68.5,17,67,17,65.6c0-2.3,0.2-4.6,0.6-6.9c0.4-1.8,1-3.6,1.9-5.3c0.8-1.5,1.8-2.8,3-3.9
		c1.2-1.1,2.6-2,4-2.6c1.6-0.8,3.3-1.3,5.1-1.6c1.9-0.4,3.9-0.7,5.9-0.8c2-0.2,4.2-0.2,6.7-0.2h8.5V54c0,1.3,1.1,2.4,2.4,2.4
		c0.6,0,1.3-0.3,1.7-0.7l19.6-19.5c0.5-0.4,0.7-1.1,0.7-1.7C77.2,33.8,77,33.2,76.5,32.7L76.5,32.7z"/>
</g>
</svg>
