<?xml version="1.0" encoding="utf-8"?>
<!-- Generator: Adobe Illustrator 22.0.1, SVG Export Plug-In . SVG Version: 6.00 Build 0)  -->
<svg version="1.1" id="Layer_1" xmlns="http://www.w3.org/2000/svg" xmlns:xlink="http://www.w3.org/1999/xlink" x="0px" y="0px"
	 viewBox="0 0 86 86" style="enable-background:new 0 0 86 86;" xml:space="preserve">
<style type="text/css">
	.st0{fill:none;stroke:#000000;stroke-miterlimit:10;}
</style>
<g id="Artboard_1">
	<path id="Path_2081" class="st0" d="M79.9,21.6c-2.8,1.2-5.8,2-8.8,2.4c3.2-1.9,5.6-4.9,6.7-8.5c-3,1.8-6.3,3-9.7,3.7
		c-5.8-6.2-15.5-6.5-21.7-0.7c-3.1,2.9-4.9,7-4.8,11.2c0,1.2,0.1,2.3,0.4,3.5c-12.3-0.6-23.8-6.4-31.6-16c-4.1,7-2,16,4.7,20.5
		c-2.4-0.1-4.8-0.7-6.9-1.9V36c0,7.3,5.1,13.6,12.3,15.1c-1.3,0.3-2.7,0.5-4,0.5c-1,0-2-0.1-2.9-0.3c2,6.2,7.8,10.5,14.3,10.7
		c-5.4,4.2-12.1,6.5-19,6.5c-1.2,0-2.5-0.1-3.7-0.2c7,4.5,15.2,6.9,23.5,6.9c28.2,0,43.6-23.4,43.6-43.6c0-0.7,0-1.3-0.1-2
		C75.2,27.5,77.8,24.7,79.9,21.6z"/>
</g>
</svg>
