<?xml version="1.0" encoding="utf-8"?>
<!-- Generator: Adobe Illustrator 22.0.1, SVG Export Plug-In . SVG Version: 6.00 Build 0)  -->
<svg version="1.1" id="Layer_1" xmlns="http://www.w3.org/2000/svg" xmlns:xlink="http://www.w3.org/1999/xlink" x="0px" y="0px"
	 viewBox="0 0 86 86" style="enable-background:new 0 0 86 86;" xml:space="preserve">
<style type="text/css">
	.st0{fill:none;stroke:#000000;stroke-miterlimit:10;}
</style>
<g id="Artboard_1">
	<g id="Group_2100" transform="translate(10.464 10.539)">
		<path id="Path_2081" class="st0" d="M0,65.3L4.6,49c-9.2-15.6-4-35.7,11.6-44.9s35.7-4,44.9,11.6s4,35.7-11.6,44.9
			c-10,5.9-22.5,6-32.6,0.3L0,65.3z"/>
		<path id="Path_2082" class="st0" d="M24.2,16.2l-2-0.1c-0.6,0-1.3,0.2-1.7,0.7c-1.5,1.4-2.5,3.2-3,5.2c-0.7,3.6,0.4,7.9,3.2,12.3
			s8.2,11.3,17.6,14.3c2.4,0.9,5.2,0.5,7.3-1c1.5-1.1,2.5-2.8,2.8-4.6l0.3-1.7c0.1-0.5-0.1-1-0.6-1.3l-6.8-3.5
			c-0.5-0.2-1-0.1-1.3,0.4l-2.7,3.9c-0.2,0.3-0.5,0.4-0.9,0.3c-5-2.1-9.1-5.9-11.3-10.8c-0.2-0.3-0.1-0.7,0.1-1l2.6-3.3
			c0.3-0.4,0.3-0.8,0.2-1.2l-2.9-7.7C24.9,16.5,24.6,16.2,24.2,16.2L24.2,16.2z"/>
	</g>
</g>
</svg>
