<?xml version="1.0" encoding="utf-8"?>
<!-- Generator: Adobe Illustrator 25.0.1, SVG Export Plug-In . SVG Version: 6.00 Build 0)  -->
<svg version="1.1" id="Layer_1" xmlns="http://www.w3.org/2000/svg" xmlns:xlink="http://www.w3.org/1999/xlink" x="0px" y="0px"
	 viewBox="0 0 512 512" style="enable-background:new 0 0 512 512;" xml:space="preserve">
<style type="text/css">
	.st0{fill:#878787;}
</style>
<g>
	<path class="st0" d="M257.5,198.6c-35.6,0-64.5,28.9-64.5,64.5c0,35.6,28.9,64.5,64.5,64.5c11.5,0,22.2-3,31.5-8.3
		c0.3-0.3,0.6-0.5,1-0.7c0.7-0.5,1.4-0.9,2.2-1.2c17.9-11.5,29.8-31.5,29.8-54.3C322,227.6,293.1,198.6,257.5,198.6z"/>
	<path class="st0" d="M454.7,119.6H258.7l-39-46.4c-1.2-1.4-2.9-2.2-4.7-2.1H57.3c-23.6,0.2-42.6,19.4-42.6,43v283.8
		c0,23.6,19,42.8,42.6,43h397.3c23.6-0.2,42.6-19.4,42.6-43V162.6C497.2,139,478.2,119.8,454.7,119.6z M341.5,395
		c-2.1,1.4-4.6,2.1-7,2.1c-4,0-8-1.9-10.4-5.5l-31.2-46.3c-10.9,4.7-22.8,7.3-35.4,7.3c-49.4,0-89.5-40.1-89.5-89.5
		c0-49.4,40.1-89.5,89.5-89.5s89.5,40.1,89.5,89.5c0,27.8-12.8,52.7-32.7,69.1l30.6,45.4C348.7,383.4,347.2,391.2,341.5,395z"/>
</g>
</svg>
