<?xml version="1.0" encoding="utf-8"?>
<!-- Generator: Adobe Illustrator 25.0.1, SVG Export Plug-In . SVG Version: 6.00 Build 0)  -->
<svg version="1.1" id="Layer_1" xmlns="http://www.w3.org/2000/svg" xmlns:xlink="http://www.w3.org/1999/xlink" x="0px" y="0px"
	 viewBox="0 0 512 512" style="enable-background:new 0 0 512 512;" xml:space="preserve">
<style type="text/css">
	.st0{fill:#878787;}
</style>
<path class="st0" d="M255,13C121.1,13,12.5,121.6,12.5,255.5S121.1,498,255,498s242.5-108.6,242.5-242.5S388.9,13,255,13z
	 M417.5,196L205,363.2c-2.2,1.7-4.9,2.7-7.7,2.7c-0.5,0-1,0-1.5-0.1c-3.3-0.4-6.3-2.1-8.4-4.8l-79.4-103c-4.2-5.5-3.2-13.3,2.3-17.5
	c5.5-4.2,13.3-3.2,17.5,2.3l71.7,93L402,176.4c5.4-4.3,13.3-3.3,17.6,2.1C423.8,183.9,422.9,191.8,417.5,196z"/>
</svg>
