<?xml version="1.0" encoding="utf-8"?>
<!-- Generator: Adobe Illustrator 25.0.1, SVG Export Plug-In . SVG Version: 6.00 Build 0)  -->
<svg version="1.1" id="Layer_1" xmlns="http://www.w3.org/2000/svg" xmlns:xlink="http://www.w3.org/1999/xlink" x="0px" y="0px"
	 viewBox="0 0 512 512" style="enable-background:new 0 0 512 512;" xml:space="preserve">
<style type="text/css">
	.st0{fill:#878787;}
</style>
<path id="Union_2" class="st0" d="M131.4,501c-22.3,0-40.5-18.1-40.5-40.5V207.7H47.7c-11.2,0-20.2-9.1-20.2-20.2V122
	c0-11.2,9.1-20.2,20.2-20.2h101.7V31.2c0-11.2,9.1-20.2,20.2-20.2h172.8c11.2,0,20.2,9.1,20.2,20.2v70.6h101.7
	c11.2,0,20.2,9.1,20.2,20.2v65.5c0,11.2-9.1,20.2-20.2,20.2h-34.7v252.9c0,22.3-18.1,40.5-40.5,40.5H131.4z M302.6,416.6h42.3v-209
	h-42.3V416.6z M175.6,416.6h42.4v-209h-42.4L175.6,416.6z"/>
</svg>
