<?xml version="1.0" encoding="utf-8"?>
<!-- Generator: Adobe Illustrator 24.1.0, SVG Export Plug-In . SVG Version: 6.00 Build 0)  -->
<svg version="1.1" id="Layer_1" xmlns="http://www.w3.org/2000/svg" xmlns:xlink="http://www.w3.org/1999/xlink" x="0px" y="0px"
	 viewBox="0 0 512 512" style="enable-background:new 0 0 512 512;" xml:space="preserve">
<style type="text/css">
	.st0{fill:none;stroke:#000000;stroke-width:15;stroke-miterlimit:10;}
</style>
<rect x="95.3" y="94.7" class="st0" width="319.7" height="319.7"/>
<path d="M208.5,229.1c-2.5,16.9-10.5,17.2-26.7,17.8l-2.5,0.1v11.8h27.4v77h14.5v-109h-12.4L208.5,229.1L208.5,229.1z"/>
<path d="M290.4,261.8c-6.5,0-13.1,2.1-18.3,5.6L277,242h45.7v-13.8h-56.6l-11,58.9h12.6l0.8-1.2c4.4-6.8,12.4-11.1,20.9-11.1
	c13.8,0,23.9,10.2,23.9,24.3c0,12.8-8,25.7-23.3,25.7c-13.1,0-22.5-8.8-22.9-21.5l-0.1-2.5h-14.5l0.1,2.7
	c0.5,20.6,15.2,34.4,36.6,34.4c21.6,0,38.6-16.6,38.6-37.7C327.8,277.2,312.8,261.7,290.4,261.8L290.4,261.8z"/>
<line class="st0" x1="95.3" y1="167.1" x2="414.9" y2="167.1"/>
<g>
	<line class="st0" x1="188" y1="132.6" x2="218.2" y2="132.6"/>
	<line class="st0" x1="293.8" y1="132.6" x2="324" y2="132.6"/>
</g>
</svg>
