<?xml version="1.0" encoding="utf-8"?>
<!-- Generator: Adobe Illustrator 22.0.1, SVG Export Plug-In . SVG Version: 6.00 Build 0)  -->
<svg version="1.1" id="Layer_1" xmlns="http://www.w3.org/2000/svg" xmlns:xlink="http://www.w3.org/1999/xlink" x="0px" y="0px"
	 viewBox="0 0 256 256" style="enable-background:new 0 0 256 256;" xml:space="preserve">
<style type="text/css">
	.st0{fill:none;stroke:#000000;stroke-width:5;stroke-miterlimit:10;}
</style>
<path id="_x31_1-DSLR_Camera" class="st0" d="M216,69.5h-54.5l-11-18.5c-1.1-1.8-3-2.9-5.1-2.9h-34.7c-2.1,0-4.1,1.1-5.1,2.9
	l-11,18.5H76.7v-4.1c0-3.3-2.7-6-6-6H48.6c-3.3,0-6,2.7-6,6v4.1H40c-8.3,0-15,6.7-15,15v108.7c0,8.3,6.7,15,15,15h176
	c8.3,0,15-6.7,15-15V84.5C231.1,76.2,224.3,69.5,216,69.5z M128,177.3c-21.2,0-38.4-17.2-38.4-38.4s17.2-38.4,38.4-38.4
	s38.4,17.2,38.4,38.4S149.2,177.3,128,177.3z M206.7,100.5h-18.7c-3.3,0-6-2.7-6-6s2.7-6,6-6h18.7c3.3,0,6,2.7,6,6
	C212.6,97.8,210,100.5,206.7,100.5z"/>
</svg>
