<?xml version="1.0" encoding="utf-8"?>
<!-- Generator: Adobe Illustrator 22.1.0, SVG Export Plug-In . SVG Version: 6.00 Build 0)  -->
<svg version="1.1" id="Layer_1" xmlns="http://www.w3.org/2000/svg" xmlns:xlink="http://www.w3.org/1999/xlink" x="0px" y="0px"
	 viewBox="0 0 512 512" style="enable-background:new 0 0 512 512;" xml:space="preserve">
<style type="text/css">
	.st0{display:none;fill:#7F7F7F;}
	.st1{fill:none;stroke:#000000;stroke-width:10;stroke-miterlimit:10;}
</style>
<rect class="st0" width="512" height="512"/>
<g>
	<g>
		<path class="st1" d="M306.2,120.3c-55.1,0-104.3,31.5-135.8,58.5c-33.9,29.1-31.9,129.3-31.9,129.3c0.3,0,0.7,0,1.1,0
			c22.3,0,108.8,9.1,178.3,21.6c70.6,12.7,121.8,35.6,121.8,35.6s40.3-6.9,52.3-8.2c12-1.4,8.2-16.1,8.2-16.1s-0.3-30.2-2.2-66.8
			c-1.9-36.7-19.4-62.4-19.4-62.4c-44.2-65.8-99.1-85.3-159.4-90.8C314.8,120.5,310.5,120.3,306.2,120.3L306.2,120.3z"/>
	</g>
	<g>
		<path class="st1" d="M134.6,327l-81.2,32.6c0,0-54.8,18.9-32.9,35.6c7,5.4,14.7,7.5,22.7,7.5c17.1,0,35.8-9.7,53.8-18.8
			c6.5-3.3,13.8-4.5,21.5-4.5c23.7,0,50,12.2,60.1,15.9c13.4,4.8,53.1,17.8,104.9,25.4c3.4,0.5,6.9,0.7,10.6,0.7
			c51.5,0,122.1-47.1,122.1-47.1C296.8,332.5,134.6,327,134.6,327L134.6,327z"/>
	</g>
	<g>
		<path class="st1" d="M330.1,99.6c-8,0-14.4,6.4-14.4,14.4s6.4,14.4,14.4,14.4s14.4-6.4,14.4-14.4
			C344.5,106.1,338.1,99.6,330.1,99.6L330.1,99.6z"/>
	</g>
</g>
</svg>
