<?xml version="1.0" encoding="utf-8"?>
<!-- Generator: Adobe Illustrator 25.2.1, SVG Export Plug-In . SVG Version: 6.00 Build 0)  -->
<svg version="1.1" id="Layer_1" xmlns="http://www.w3.org/2000/svg" xmlns:xlink="http://www.w3.org/1999/xlink" x="0px" y="0px"
	 viewBox="0 0 512 512" style="enable-background:new 0 0 512 512;" xml:space="preserve">
<style type="text/css">
	.st0{fill:none;stroke:#000000;stroke-width:10;stroke-miterlimit:10;}
</style>
<path class="st0" d="M466,386.5H46c-6.6,0-12-5.4-12-12v-237c0-6.6,5.4-12,12-12h420c6.6,0,12,5.4,12,12v237
	C478,381.1,472.6,386.5,466,386.5z"/>
<path class="st0" d="M155.4,240.6H92.1c-6.6,0-12-5.4-12-12v-42.4c0-6.6,5.4-12,12-12h63.3c6.6,0,12,5.4,12,12v42.4
	C167.4,235.2,162,240.6,155.4,240.6z"/>
<path class="st0" d="M138,334.2H92.1c-6.6,0-12-5.4-12-12v-2.3c0-6.6,5.4-12,12-12H138c6.6,0,12,5.4,12,12v2.3
	C150,328.8,144.6,334.2,138,334.2z"/>
<path class="st0" d="M233.9,334.2H188c-6.6,0-12-5.4-12-12v-2.3c0-6.6,5.4-12,12-12h45.9c6.6,0,12,5.4,12,12v2.3
	C245.9,328.8,240.5,334.2,233.9,334.2z"/>
<path class="st0" d="M328.4,334.2h-45.9c-6.6,0-12-5.4-12-12v-2.3c0-6.6,5.4-12,12-12h45.9c6.6,0,12,5.4,12,12v2.3
	C340.4,328.8,335,334.2,328.4,334.2z"/>
<path class="st0" d="M422.9,334.2h-45.9c-6.6,0-12-5.4-12-12v-2.3c0-6.6,5.4-12,12-12h45.9c6.6,0,12,5.4,12,12v2.3
	C434.9,328.8,429.5,334.2,422.9,334.2z"/>
<circle class="st0" cx="413.2" cy="200.5" r="25.3"/>
<path class="st0" d="M394.7,216.9c-4.6,5.4-11.5,8.8-19.2,8.8c-13.9,0-25.3-11.3-25.3-25.3c0-13.9,11.3-25.3,25.3-25.3
	c7,0,13.3,2.8,17.9,7.4"/>
</svg>
