<?xml version="1.0" encoding="utf-8"?>
<!-- Generator: Adobe Illustrator 25.2.1, SVG Export Plug-In . SVG Version: 6.00 Build 0)  -->
<svg version="1.1" id="Layer_1" xmlns="http://www.w3.org/2000/svg" xmlns:xlink="http://www.w3.org/1999/xlink" x="0px" y="0px"
	 viewBox="0 0 512 512" style="enable-background:new 0 0 512 512;" xml:space="preserve">
<style type="text/css">
	.st0{fill:none;stroke:#000000;stroke-width:10;stroke-miterlimit:10;}
	.st1{fill:none;stroke:#000000;stroke-width:10;stroke-linejoin:round;stroke-miterlimit:10;}
</style>
<path class="st0" d="M85,374c0-17.7-14.3-32-32-32s-32,14.3-32,32V134c0-17.7,14.3-32,32-32s32,14.3,32,32V374z"/>
<path class="st0" d="M53,342c-17.7,0-32,14.3-32,32s14.3,32,32,32h400v-32H85C85,356.3,70.7,342,53,342z"/>
<path class="st0" d="M85,134v8v232h368h32V134H85z"/>
<line class="st0" x1="138" y1="204" x2="434" y2="204"/>
<line class="st0" x1="138" y1="254" x2="434" y2="254"/>
<line class="st0" x1="138" y1="304" x2="229" y2="304"/>
<path class="st1" d="M298.6,327.8l20.2-33l11.8,28c0,0,8.4-12,18.5-16s21.9-5,25.3,6s6.7,17,20.2,17s38.7,0,38.7,0"/>
</svg>
