<?xml version="1.0" encoding="utf-8"?>
<!-- Generator: Adobe Illustrator 22.1.0, SVG Export Plug-In . SVG Version: 6.00 Build 0)  -->
<svg version="1.1" id="Layer_1" xmlns="http://www.w3.org/2000/svg" xmlns:xlink="http://www.w3.org/1999/xlink" x="0px" y="0px"
	 viewBox="0 0 512 512" style="enable-background:new 0 0 512 512;" xml:space="preserve">
<style type="text/css">
	.st0{fill:none;stroke:#000000;stroke-width:15;stroke-linecap:round;stroke-linejoin:round;stroke-miterlimit:10;}
</style>
<g id="settings">
	<path class="st0" d="M340.9,255.4c0,47.8-38.7,86.5-86.5,86.5c-47.8,0-86.5-38.7-86.5-86.5c0-47.8,38.7-86.5,86.5-86.5
		C302.2,168.8,340.9,207.6,340.9,255.4z"/>
	<path class="st0" d="M147.6,123.6L88,89.2c-6.1-3.5-13.8-1.4-17.3,4.6l-47.1,81.6c-3.5,6.1-1.4,13.8,4.6,17.3l56.5,32
		c-0.2,26.7,0,60.2,0,60.2l-56.3,32.5c-6.1,3.5-8.1,11.3-4.6,17.3l47.1,81.7c3.5,6,11.3,8.1,17.3,4.6l59.7-34.5l0.1,0.1
		c20.9,14.4,48.4,28.6,48.4,28.6v68c0,7,5.7,12.7,12.7,12.7h94.3c7,0,12.7-5.7,12.7-12.7v-68c0,0,21.4-10.2,48.4-29l59.6,34.4
		c6,3.5,13.8,1.4,17.3-4.7l47.2-81.6c3.5-6.1,1.4-13.8-4.6-17.3L424,282.7l-0.1-0.2c0.3-22.5-0.5-34.1-0.4-55.5l0,0l60-34.7
		c6.1-3.5,8.1-11.2,4.6-17.3L441,93.5c-3.5-6.1-11.2-8.2-17.3-4.6l-59.7,34.5l-0.2-0.1c-19.7-11.1-27.9-16.6-48.3-27.8l0,0V26.7
		c0-7-5.7-12.7-12.7-12.7h-94.3c-7,0-12.7,5.7-12.7,12.7v63.7l0,0C174.1,106.6,147.6,123.6,147.6,123.6"/>
</g>
</svg>
