<?xml version="1.0" encoding="utf-8"?>
<!-- Generator: Adobe Illustrator 25.1.0, SVG Export Plug-In . SVG Version: 6.00 Build 0)  -->
<svg version="1.1" id="Layer_1" xmlns="http://www.w3.org/2000/svg" xmlns:xlink="http://www.w3.org/1999/xlink" x="0px" y="0px"
	 viewBox="0 0 1024 1024" style="enable-background:new 0 0 1024 1024;" xml:space="preserve">
<style type="text/css">
	.st0{fill:none;stroke:#000000;stroke-width:20;stroke-linecap:round;stroke-linejoin:round;stroke-miterlimit:10;}
	.st1{fill:none;stroke:#000000;stroke-width:20;stroke-miterlimit:10;}
</style>
<path class="st0" d="M476.3,564.5l-434-220.9c-12.5-6.4-12.3-24.3,0.3-30.4L488.1,95.9c16.8-8.2,36.4-8.3,53.2-0.2l431.3,206.1
	c14.4,6.9,14.7,27.2,0.6,34.5L533.2,564.3C515.4,573.6,494.2,573.6,476.3,564.5z"/>
<line class="st1" x1="913" y1="369.8" x2="913" y2="676.3"/>
<line class="st0" x1="913" y1="808" x2="913" y2="918.1"/>
<circle class="st1" cx="913" cy="743.3" r="64.7"/>
<path class="st0" d="M190.9,418.5v139.7c0,92.1,142.8,166.7,318.9,166.7s318.9-74.6,318.9-166.7V410.9"/>
</svg>
