<?xml version="1.0" encoding="utf-8"?>
<!-- Generator: Adobe Illustrator 25.2.3, SVG Export Plug-In . SVG Version: 6.00 Build 0)  -->
<svg version="1.1" id="Layer_1" xmlns="http://www.w3.org/2000/svg" xmlns:xlink="http://www.w3.org/1999/xlink" x="0px" y="0px"
	 viewBox="0 0 1000 1000" style="enable-background:new 0 0 1000 1000;" xml:space="preserve">
<path d="M940.3,240.5C896.8,97.2,745.4,16.3,602.1,59.7S377.8,254.6,421.3,397.9L48,771.2V952h180.8l90.4-90.4v-90.4h90.4v-90.4
	h90.4l102.1-102.1c51.3,15.6,106.1,15.6,157.4,0C902.8,535.2,983.7,383.8,940.3,240.5z M769,311c-41.4,0-75-33.6-75-75
	c0-41.4,33.6-75,75-75s75,33.6,75,75C844,277.4,810.4,311,769,311z"/>
</svg>
