<?xml version="1.0" encoding="utf-8"?>
<!-- Generator: Adobe Illustrator 25.2.3, SVG Export Plug-In . SVG Version: 6.00 Build 0)  -->
<svg version="1.1" id="Layer_1" xmlns="http://www.w3.org/2000/svg" xmlns:xlink="http://www.w3.org/1999/xlink" x="0px" y="0px"
	 viewBox="0 0 1024 1024" style="enable-background:new 0 0 1024 1024;" xml:space="preserve">
<style type="text/css">
	.st0{fill:none;stroke:#000000;stroke-width:21;stroke-miterlimit:10;}
</style>
<path class="st0" d="M292.4,336.4h-110c-11,0-20-9-20-20v-110c0-11,9-20,20-20h110c11,0,20,9,20,20v110
	C312.4,327.4,303.4,336.4,292.4,336.4z"/>
<path class="st0" d="M292.4,587h-110c-11,0-20-9-20-20V457c0-11,9-20,20-20h110c11,0,20,9,20,20v110C312.4,578,303.4,587,292.4,587z
	"/>
<path class="st0" d="M292.4,837.6h-110c-11,0-20-9-20-20v-110c0-11,9-20,20-20h110c11,0,20,9,20,20v110
	C312.4,828.6,303.4,837.6,292.4,837.6z"/>
<path class="st0" d="M841.6,336.4h-410c-11,0-20-9-20-20v-110c0-11,9-20,20-20h410c11,0,20,9,20,20v110
	C861.6,327.4,852.6,336.4,841.6,336.4z"/>
<path class="st0" d="M841.6,587h-410c-11,0-20-9-20-20V457c0-11,9-20,20-20h410c11,0,20,9,20,20v110C861.6,578,852.6,587,841.6,587z
	"/>
<path class="st0" d="M841.6,837.6h-410c-11,0-20-9-20-20v-110c0-11,9-20,20-20h410c11,0,20,9,20,20v110
	C861.6,828.6,852.6,837.6,841.6,837.6z"/>
</svg>
