<?xml version="1.0" encoding="utf-8"?>
<!-- Generator: Adobe Illustrator 24.0.0, SVG Export Plug-In . SVG Version: 6.00 Build 0)  -->
<svg version="1.1" id="Layer_1" xmlns="http://www.w3.org/2000/svg" xmlns:xlink="http://www.w3.org/1999/xlink" x="0px" y="0px"
	 viewBox="0 0 512 512" style="enable-background:new 0 0 512 512;" xml:space="preserve">
<style type="text/css">
	.st0{fill:none;stroke:#000000;stroke-width:10;stroke-miterlimit:10;}
</style>
<path class="st0" d="M256,345.4L256,345.4c-39.5,0-71.9-32.3-71.9-71.9V129.9c0-39.5,32.3-71.9,71.9-71.9l0,0
	c39.5,0,71.9,32.3,71.9,71.9v143.7C327.9,313.1,295.5,345.4,256,345.4z"/>
<path class="st0" d="M375.8,201.7v71.9c0,65.9-53.9,119.8-119.8,119.8l0,0c-65.9,0-119.8-53.9-119.8-119.8v-71.9"/>
<line class="st0" x1="256" y1="393.3" x2="256" y2="464"/>
<line class="st0" x1="184.1" y1="464" x2="327.9" y2="464"/>
</svg>
