<?xml version="1.0" encoding="utf-8"?>
<!-- Generator: Adobe Illustrator 24.0.3, SVG Export Plug-In . SVG Version: 6.00 Build 0)  -->
<svg version="1.1" id="Layer_1" xmlns="http://www.w3.org/2000/svg" xmlns:xlink="http://www.w3.org/1999/xlink" x="0px" y="0px"
	 viewBox="0 0 512 512" style="enable-background:new 0 0 512 512;" xml:space="preserve">
<style type="text/css">
	.st0{fill:none;stroke:#010202;stroke-width:10;stroke-miterlimit:10;}
	.st1{fill:none;stroke:#010202;stroke-width:10;stroke-linecap:round;stroke-linejoin:round;stroke-miterlimit:10;}
</style>
<path class="st0" d="M59.24,469.1h208.46c6.71,0,12.2-5.49,12.2-12.2V57.02c0-6.71-5.49-12.2-12.2-12.2H59.24
	c-6.71,0-12.2,5.49-12.2,12.2V456.9C47.04,463.61,52.53,469.1,59.24,469.1z"/>
<path class="st0" d="M130.33,469.1h66.37c6.6,0,12-5.4,12-12v-82.39c0-6.6-5.4-12-12-12h-66.37c-6.6,0-12,5.4-12,12v82.39
	C118.33,463.7,123.73,469.1,130.33,469.1z"/>
<path class="st0" d="M457.3,236.62H291.89c-6.6,0-12,5.4-12,12V457.1c0,6.6,5.4,12,12,12H457.3c6.6,0,12-5.4,12-12V248.62
	C469.3,242.02,463.9,236.62,457.3,236.62z"/>
<line class="st1" x1="99.82" y1="305.78" x2="136.91" y2="305.78"/>
<line class="st1" x1="189.5" y1="305.78" x2="226.59" y2="305.78"/>
<line class="st1" x1="356.05" y1="412.06" x2="393.14" y2="412.06"/>
<line class="st1" x1="356.05" y1="359.1" x2="393.14" y2="359.1"/>
<line class="st1" x1="356.05" y1="304.8" x2="393.14" y2="304.8"/>
<line class="st1" x1="99.82" y1="251.95" x2="136.91" y2="251.95"/>
<line class="st1" x1="189.5" y1="251.95" x2="226.59" y2="251.95"/>
<line class="st1" x1="99.82" y1="198.12" x2="136.91" y2="198.12"/>
<line class="st1" x1="189.5" y1="198.12" x2="226.59" y2="198.12"/>
<line class="st1" x1="99.82" y1="144.29" x2="136.91" y2="144.29"/>
<line class="st1" x1="189.5" y1="144.29" x2="226.59" y2="144.29"/>
<line class="st1" x1="99.82" y1="90.46" x2="136.91" y2="90.46"/>
<line class="st1" x1="189.5" y1="90.46" x2="226.59" y2="90.46"/>
</svg>
