<?xml version="1.0" encoding="utf-8"?>
<!-- Generator: Adobe Illustrator 22.1.0, SVG Export Plug-In . SVG Version: 6.00 Build 0)  -->
<svg version="1.1" id="Layer_1" xmlns="http://www.w3.org/2000/svg" xmlns:xlink="http://www.w3.org/1999/xlink" x="0px" y="0px"
	 viewBox="0 0 512 512" style="enable-background:new 0 0 512 512;" xml:space="preserve">
<style type="text/css">
	.st0{fill:none;stroke:#000000;stroke-width:10;stroke-miterlimit:10;}
</style>
<path class="st0" d="M304.9,352.1c0,0,38-21.7,47.9-27c9.9-5.2,20.2-6.6,26.4-2.8c9.4,5.8,88.7,58.5,95.4,63.2
	c6.7,4.7,9.9,18,0.7,31.1c-9.1,13.1-51.3,64.8-69.2,64.3c-17.9-0.6-92.3-2.2-232.6-142.6C33.2,198.1,31.6,123.7,31,105.8
	c-0.6-17.9,51.2-60.1,64.3-69.2c13.1-9.1,26.5-5.7,31.1,0.7c5.3,7.3,57.4,86.3,63.2,95.4c3.9,6.2,2.5,16.5-2.8,26.4
	c-5.2,9.9-26.9,47.9-26.9,47.9s15.3,26.1,67.1,77.9C278.8,336.8,304.9,352.1,304.9,352.1z"/>
</svg>
