<?xml version="1.0" encoding="utf-8"?>
<!-- Generator: Adobe Illustrator 25.2.1, SVG Export Plug-In . SVG Version: 6.00 Build 0)  -->
<svg version="1.1" id="Layer_1" xmlns="http://www.w3.org/2000/svg" xmlns:xlink="http://www.w3.org/1999/xlink" x="0px" y="0px"
	 viewBox="0 0 1024 1024" style="enable-background:new 0 0 1024 1024;" xml:space="preserve">
<style type="text/css">
	.st0{fill:none;stroke:#010002;stroke-width:20;stroke-miterlimit:10;}
</style>
<g>
	<path class="st0" d="M855.9,95.4H168.1c-55.4,0-100.5,45.1-100.5,100.6v632.2c0,55.4,45.1,100.5,100.5,100.5h687.8
		c55.4,0,100.5-45,100.5-100.5V196C956.4,140.5,911.4,95.4,855.9,95.4z M642.4,245c53.6,0,97.1,43.5,97.1,97.1s-43.5,97.1-97.1,97.1
		s-97.1-43.5-97.1-97.1S588.7,245,642.4,245z M824.4,835.7H512H213.5c-26.8,0-38.8-19.4-26.7-43.3l166.6-330.1
		c12.1-23.9,35.1-26.1,51.4-4.8l167.6,219c16.3,21.3,44.8,23.1,63.6,4l41-41.5c18.8-19.1,46.6-16.7,62,5.2l106.2,151.6
		C860.5,817.9,851.2,835.7,824.4,835.7z"/>
</g>
</svg>
