<?xml version="1.0" encoding="utf-8"?>
<!-- Generator: Adobe Illustrator 24.0.2, SVG Export Plug-In . SVG Version: 6.00 Build 0)  -->
<svg version="1.1" id="Layer_1" xmlns="http://www.w3.org/2000/svg" xmlns:xlink="http://www.w3.org/1999/xlink" x="0px" y="0px"
	 viewBox="0 0 512 512" style="enable-background:new 0 0 512 512;" xml:space="preserve">
<style type="text/css">
	.st0{fill:none;stroke:#000000;stroke-width:15;stroke-linecap:round;stroke-linejoin:round;stroke-miterlimit:10;}
</style>
<path class="st0" d="M355.29,162.67L130.7,42.43c-11.67-6.25-24.33-6.57-35.28-2.57L286.76,231.2L355.29,162.67z"/>
<path class="st0" d="M449.05,217.51l-64.69-34.63l-72.96,72.96l72.96,72.96l64.69-34.64C479.65,277.77,479.65,233.89,449.05,217.51z
	"/>
<path class="st0" d="M67.9,61.6c-6.86,7.54-11.19,17.61-11.19,29.15v330.16c0,11.54,4.33,21.61,11.19,29.15l194.23-194.23L67.9,61.6
	z"/>
<path class="st0" d="M95.42,471.81c10.95,3.99,23.61,3.68,35.28-2.57L355.29,349l-68.53-68.53L95.42,471.81z"/>
</svg>
