<?xml version="1.0" encoding="utf-8"?>
<!-- Generator: Adobe Illustrator 25.1.0, SVG Export Plug-In . SVG Version: 6.00 Build 0)  -->
<svg version="1.1" id="Layer_1" xmlns="http://www.w3.org/2000/svg" xmlns:xlink="http://www.w3.org/1999/xlink" x="0px" y="0px"
	 viewBox="0 0 1024 1024" style="enable-background:new 0 0 1024 1024;" xml:space="preserve">
<style type="text/css">
	.st0{fill:none;stroke:#000000;stroke-width:25;stroke-linecap:round;stroke-linejoin:round;stroke-miterlimit:10;}
	.st1{stroke:#000000;stroke-width:25;stroke-linecap:round;stroke-linejoin:round;stroke-miterlimit:10;}
</style>
<g>
	<path class="st0" d="M44,286.4V116.1C44,76.3,76.3,44,116.1,44H282"/>
	<path class="st0" d="M421.5,456.2H185.5c-17.6,0-31.8-14.2-31.8-31.8V188.5c0-17.6,14.2-31.8,31.8-31.8h235.9
		c17.6,0,31.8,14.2,31.8,31.8v235.9C453.3,442,439,456.2,421.5,456.2z"/>
	<path class="st1" d="M367.4,378.4H240.6c-4,0-7.3-3.3-7.3-7.3V244.3c0-4,3.3-7.3,7.3-7.3h126.9c4,0,7.3,3.3,7.3,7.3v126.9
		C374.7,375.2,371.5,378.4,367.4,378.4z"/>
</g>
<g>
	<path class="st0" d="M739.8,46.2H910c39.8,0,72.1,32.3,72.1,72.1v165.9"/>
	<path class="st0" d="M570,423.7V187.7c0-17.6,14.2-31.8,31.8-31.8h235.9c17.6,0,31.8,14.2,31.8,31.8v235.9
		c0,17.6-14.2,31.8-31.8,31.8H601.8C584.2,455.5,570,441.2,570,423.7z"/>
	<path class="st1" d="M647.7,369.6V242.8c0-4,3.3-7.3,7.3-7.3h126.9c4,0,7.3,3.3,7.3,7.3v126.9c0,4-3.3,7.3-7.3,7.3H655
		C651,376.9,647.7,373.6,647.7,369.6z"/>
</g>
<g>
	<path class="st0" d="M982.2,738.8V909c0,39.8-32.3,72.1-72.1,72.1H744.2"/>
	<path class="st0" d="M604.7,569h235.9c17.6,0,31.8,14.2,31.8,31.8v235.9c0,17.6-14.2,31.8-31.8,31.8H604.7
		c-17.6,0-31.8-14.2-31.8-31.8V600.8C572.9,583.2,587.1,569,604.7,569z"/>
	<path class="st1" d="M658.7,646.7h126.9c4,0,7.3,3.3,7.3,7.3v126.9c0,4-3.3,7.3-7.3,7.3H658.7c-4,0-7.3-3.3-7.3-7.3V654
		C651.5,650,654.7,646.7,658.7,646.7z"/>
</g>
<g>
	<path class="st0" d="M286.4,979H116.1C76.3,979,44,946.7,44,906.9V741"/>
	<path class="st0" d="M456.2,601.5v235.9c0,17.6-14.2,31.8-31.8,31.8H188.5c-17.6,0-31.8-14.2-31.8-31.8V601.5
		c0-17.6,14.2-31.8,31.8-31.8h235.9C442,569.7,456.2,584,456.2,601.5z"/>
	<path class="st1" d="M378.4,655.6v126.9c0,4-3.3,7.3-7.3,7.3H244.3c-4,0-7.3-3.3-7.3-7.3V655.6c0-4,3.3-7.3,7.3-7.3h126.9
		C375.2,648.3,378.4,651.5,378.4,655.6z"/>
</g>
</svg>
