<?xml version="1.0" encoding="utf-8"?>
<!-- Generator: Adobe Illustrator 24.0.0, SVG Export Plug-In . SVG Version: 6.00 Build 0)  -->
<svg version="1.1" id="Layer_1" xmlns="http://www.w3.org/2000/svg" xmlns:xlink="http://www.w3.org/1999/xlink" x="0px" y="0px"
	 viewBox="0 0 512 512" style="enable-background:new 0 0 512 512;" xml:space="preserve">
<style type="text/css">
	.st0{fill:none;stroke:#000000;stroke-width:15;stroke-linecap:round;stroke-linejoin:round;stroke-miterlimit:10;}
</style>
<path class="st0" d="M276.81,462.69c-59.75,5.84-121.55-14.12-167.32-59.88c-81.17-81.17-81.17-212.76,0-293.93
	c7.61-7.61,15.66-14.5,24.07-20.69"/>
<path class="st0" d="M239.44,48.69c58.71-4.79,119.07,15.27,163.98,60.18c81.17,81.17,81.17,212.76,0,293.93
	c-8.39,8.39-17.31,15.9-26.66,22.55"/>
<path class="st0" d="M256.45,255.84"/>
<g>
	<line class="st0" x1="36.73" y1="85.35" x2="135.17" y2="85.3"/>
	<line class="st0" x1="135.11" y1="183.74" x2="135.17" y2="85.3"/>
</g>
<g>
	<line class="st0" x1="475.27" y1="425.42" x2="376.83" y2="425.47"/>
	<line class="st0" x1="376.89" y1="327.03" x2="376.83" y2="425.47"/>
</g>
</svg>
