<?xml version="1.0" encoding="utf-8"?>
<!-- Generator: Adobe Illustrator 24.0.0, SVG Export Plug-In . SVG Version: 6.00 Build 0)  -->
<svg version="1.1" id="Layer_1" xmlns="http://www.w3.org/2000/svg" xmlns:xlink="http://www.w3.org/1999/xlink" x="0px" y="0px"
	 viewBox="0 0 512 512" style="enable-background:new 0 0 512 512;" xml:space="preserve">
<style type="text/css">
	.st0{fill:none;stroke:#000000;stroke-width:10;stroke-miterlimit:10;}
</style>
<g>
	<path class="st0" d="M283.3,76.6H231c-4.7,0-8.3-3.6-8.3-8.3v-14c0-4.7,3.6-8.3,8.3-8.3h52.3c4.7,0,8.3,3.6,8.3,8.3v14
		C291.6,72.8,287.9,76.6,283.3,76.6z"/>
	<path class="st0" d="M222.7,348.6H73.5c-7.7,0-14.1-6.4-14.1-14.1V81.2c0-7.7,6.4-14.1,14.1-14.1h149.3"/>
	<path class="st0" d="M291.6,67.1h145c7.7,0,14.1,6.4,14.1,14.1v253.3c-0.1,7.6-6.5,14-14.2,14H291.6"/>
	<rect x="123.9" y="214.6" class="st0" width="24" height="88.9"/>
	<path class="st0" d="M283.3,362.4H231c-4.7,0-8.3-3.6-8.3-8.3v-11c0-4.7,3.6-8.3,8.3-8.3h52.3c4.7,0,8.3,3.6,8.3,8.3V354
		C291.6,358.8,287.9,362.4,283.3,362.4z"/>
	<rect x="180.8" y="189.2" class="st0" width="24" height="114.3"/>
	<rect x="237.8" y="152.3" class="st0" width="24" height="151.3"/>
	<rect x="294.8" y="170.9" class="st0" width="24" height="132.7"/>
	<rect x="349.5" y="115.5" class="st0" width="24" height="188"/>
	<polyline class="st0" points="143.8,348.6 60.1,464 181.2,348.6 	"/>
	<polyline class="st0" points="366.1,348.6 449.8,464 328.7,348.6 	"/>
</g>
</svg>
