<?xml version="1.0" encoding="utf-8"?>
<!-- Generator: Adobe Illustrator 23.0.2, SVG Export Plug-In . SVG Version: 6.00 Build 0)  -->
<svg version="1.1" id="Layer_1" xmlns="http://www.w3.org/2000/svg" xmlns:xlink="http://www.w3.org/1999/xlink" x="0px" y="0px"
	 viewBox="0 0 512 512" style="enable-background:new 0 0 512 512;" xml:space="preserve">
<style type="text/css">
	.st0{display:none;}
	.st1{fill:none;stroke:#000000;stroke-width:10;stroke-miterlimit:10;}
</style>
<g id="kCEybj.tif" class="st0">
	
		<image style="display:inline;overflow:visible;" width="378" height="414" id="Layer_0_1_" xlink:href="44B768F8E1F55D81.png"  transform="matrix(1 0 0 1 54 55)">
	</image>
</g>
<circle class="st1" cx="201.6" cy="71.4" r="47.7"/>
<path class="st1" d="M377.9,378l72.6,4.8c7.4,0.4,13.2,6.8,12.8,14.2l-0.9,17.4c-0.4,7.4-6.8,13.2-14.2,12.8l-104.9-5.4
	c-7.4-0.4-29.1-5-28.8-12.5l-9.8-52.8c0,0-0.5-2.7-2.3-14.6c-1.8-11.8-13.2-2.1-13.2-2.1s-34.7,25.2-44,33.2
	c-9.3,7.9-9.1,21.7-9.1,21.7l-4.5,86.8c-0.4,7.4-6.8,13.2-14.2,12.8l-17.4-0.9c-7.4-0.4-13.2-6.8-12.8-14.2l5.4-104.9
	c0.4-7.4,2.6-24,10.2-29.5l49.3-35.3c0.3-0.2,0.6-0.4,0.8-0.5c1.8-0.9,9.4-5.5,5-15.1l-44.2-99.4l-60.6,48.9
	c-4.7,5.7-13.3,6.5-19,1.8l-80.8-67.1c-5.7-4.7-6.5-13.3-1.8-19l11.1-13.4c4.7-5.7,13.3-6.5,19-1.8l60.9,50.6
	c5.9,4.9,11.2-2.1,11.2-2.1s27.7-24.3,31.5-27.6s25.7-12.1,25.7-12.1l50.2-19.2c0,0,19.4-7.9,29.9-7.7c10.5,0.3,88.1,2.1,88.1,2.1
	c7.7,0.3,17.4,1.6,20.4,8.4l42.7,95.9c3,6.8-0.1,14.8-6.8,17.8l-15.9,7.1c-6.8,3-14.8-0.1-17.8-6.8l-36.1-81.2
	c-3.6-8.1-13.4-9.3-13.4-9.3s-38.6-1.4-50.6-0.9c-12,0.5-9,9.4-9,9.4l53.9,136.3l6.3,50.7C353.1,355.3,353.4,376.4,377.9,378z"/>
</svg>
