<?xml version="1.0" encoding="utf-8"?>
<!-- Generator: Adobe Illustrator 22.0.1, SVG Export Plug-In . SVG Version: 6.00 Build 0)  -->
<svg version="1.1" id="Layer_1" xmlns="http://www.w3.org/2000/svg" xmlns:xlink="http://www.w3.org/1999/xlink" x="0px" y="0px"
	 viewBox="0 0 512 512" style="enable-background:new 0 0 512 512;" xml:space="preserve">
<style type="text/css">
	.st0{fill:none;stroke:#000000;stroke-width:10;stroke-linecap:round;stroke-linejoin:round;stroke-miterlimit:10;}
</style>
<path class="st0" d="M668,306"/>
<g>
	<path d="M89.5,89.5v333h333v-333H89.5z M408.6,103.4v62.4H103.4v-62.4C103.4,103.4,408.6,103.4,408.6,103.4z M103.4,408.6V179.7
		h305.2v228.9H103.4z"/>
	<path d="M193.6,124.2h20.8V145h-20.8V124.2z"/>
	<path d="M297.6,124.2h20.8V145h-20.8C297.6,145,297.6,124.2,297.6,124.2z"/>
	<path d="M208.5,229.1c-2.5,16.9-10.5,17.2-26.7,17.8l-2.5,0.1v11.8h27.4v77h14.5V226.8h-12.4L208.5,229.1L208.5,229.1z"/>
	<path d="M290.4,261.8c-6.5,0-13.1,2.1-18.3,5.6l4.9-25.4h45.7v-13.8h-56.6l-11,58.9h12.6l0.8-1.2c4.4-6.8,12.4-11.1,20.9-11.1
		c13.8,0,23.9,10.2,23.9,24.3c0,12.8-8,25.7-23.3,25.7c-13.1,0-22.5-8.8-22.9-21.5l-0.1-2.5h-14.5l0.1,2.7
		c0.5,20.6,15.2,34.4,36.6,34.4c21.6,0,38.6-16.6,38.6-37.7C327.8,277.2,312.8,261.7,290.4,261.8L290.4,261.8z"/>
</g>
</svg>
