<?xml version="1.0" encoding="utf-8"?>
<!-- Generator: Adobe Illustrator 22.1.0, SVG Export Plug-In . SVG Version: 6.00 Build 0)  -->
<svg version="1.1" id="Layer_1" xmlns="http://www.w3.org/2000/svg" xmlns:xlink="http://www.w3.org/1999/xlink" x="0px" y="0px"
	 viewBox="0 0 512 512" style="enable-background:new 0 0 512 512;" xml:space="preserve">
<style type="text/css">
	.st0{display:none;fill:#7F7F7F;}
	.st1{fill:none;stroke:#000000;stroke-width:10;stroke-miterlimit:10;}
</style>
<rect class="st0" width="512" height="512"/>
<g>
	<polyline class="st1" points="174,148.2 174,191.1 163.2,267.7 48.1,267.7 35.1,193.8 35.1,104.8 463.4,104.8 463.4,440.8 9,440.8 
		9,391.4 24.7,352 389.5,352 	"/>
	<path class="st1" d="M174,191.1h116.2c0,0,23.3,0,23.3,25.5s0,135.4,0,135.4"/>
	<line class="st1" x1="426.5" y1="391.4" x2="463.4" y2="391.4"/>
	<line class="st1" x1="102.9" y1="77.7" x2="102.9" y2="104.8"/>
	<line class="st1" x1="362.4" y1="71.2" x2="362.4" y2="104.8"/>
	<polyline class="st1" points="406.9,104.8 406.9,77.7 426.5,77.7 426.5,104.8 	"/>
	<polyline class="st1" points="100.7,267.7 100.7,290.7 100.7,313.8 	"/>
	<line class="st1" x1="117" y1="290.7" x2="100.7" y2="290.7"/>
	<polyline class="st1" points="463.4,136.8 503,136.8 503,267.7 463.4,267.7 	"/>
	<circle class="st1" cx="133.6" cy="215" r="12.8"/>
	<circle class="st1" cx="391" cy="282.1" r="35.4"/>
</g>
</svg>
