<?xml version="1.0" encoding="utf-8"?>
<!-- Generator: Adobe Illustrator 25.0.0, SVG Export Plug-In . SVG Version: 6.00 Build 0)  -->
<svg version="1.1" id="Layer_1" xmlns="http://www.w3.org/2000/svg" xmlns:xlink="http://www.w3.org/1999/xlink" x="0px" y="0px"
	 viewBox="0 0 1000 1000" style="enable-background:new 0 0 1000 1000;" xml:space="preserve">
<style type="text/css">
	.st0{fill:none;stroke:#000000;stroke-width:15;stroke-miterlimit:10;}
</style>
<g>
	<path class="st0" d="M845.25,382.5v441c0,27.5-22.5,50-50,50h-582c-27.5,0-50-22.5-50-50V382.49"/>
	<path class="st0" d="M557.75,874V539c0-27.5,22.5-50,50-50h106c27.5,0,50,22.5,50,50v335"/>
	<path class="st0" d="M412.75,699h-110c-27.5,0-50-22.5-50-50V539c0-27.5,22.5-50,50-50h110c27.5,0,50,22.5,50,50v110
		C462.75,676.5,440.25,699,412.75,699z"/>
	<path class="st0" d="M119.75,305.94V168.56c0-23.41,19.15-42.56,42.56-42.56h674.89c23.41,0,42.56,19.15,42.56,42.56v137.39"/>
	<path class="st0" d="M119.75,303.94c0,52.5,42.56,95.06,95.06,95.06s95.06-42.56,95.06-95.06"/>
	<path class="st0" d="M309.88,303.94c0,52.5,42.56,95.06,95.06,95.06S500,356.44,500,303.94"/>
	<path class="st0" d="M500,303.94c0,52.5,42.56,95.06,95.06,95.06s95.06-42.56,95.06-95.06"/>
	<path class="st0" d="M690.12,303.94c0,52.5,42.56,95.06,95.06,95.06s95.06-42.56,95.06-95.06"/>
</g>
</svg>
