<?xml version="1.0" encoding="utf-8"?>
<!-- Generator: Adobe Illustrator 22.0.1, SVG Export Plug-In . SVG Version: 6.00 Build 0)  -->
<svg version="1.1" id="Layer_1" xmlns="http://www.w3.org/2000/svg" xmlns:xlink="http://www.w3.org/1999/xlink" x="0px" y="0px"
	 viewBox="0 0 256 256" style="enable-background:new 0 0 256 256;" xml:space="preserve">
<style type="text/css">
	.st0{fill:none;stroke:#000000;stroke-width:5;stroke-linecap:round;stroke-linejoin:round;stroke-miterlimit:10;}
</style>
<path class="st0" d="M204.7,215.7c15.6,0,28.3-11.3,28.3-25.3c0-12.6-10.4-23.1-23.9-25l0,0c0-22.1-19.4-42.5-40.9-42.5
	c-0.7,0,0.7,0,0,0c-11.4,0.6-21.5,6.2-28.2,14.8"/>
<path class="st0" d="M168.2,122.9c-2.6-26.9-26.5-48-55.6-48c-30.8,0-55.8,23.6-55.8,52.8c0,2.8,0.2,5.6,0.7,8.3l0,0
	C38.1,138.3,23,155.2,23,175.7c0,22.1,17.4,40,38.9,40h142.7"/>
<path class="st0" d="M147.9,70.6c4.9-2.2,10.3-3.5,16-3.5c21.5,0,38.9,17.4,38.9,38.9c0,4.7-0.8,9.1-2.3,13.3"/>
<line class="st0" x1="164.3" y1="40.3" x2="164.3" y2="55.7"/>
<line class="st0" x1="229" y1="106" x2="213.7" y2="106"/>
<line class="st0" x1="210.1" y1="59.7" x2="199.2" y2="70.5"/>
</svg>
