<?xml version="1.0" encoding="utf-8"?>
<!-- Generator: Adobe Illustrator 22.1.0, SVG Export Plug-In . SVG Version: 6.00 Build 0)  -->
<svg version="1.1" id="Layer_1" xmlns="http://www.w3.org/2000/svg" xmlns:xlink="http://www.w3.org/1999/xlink" x="0px" y="0px"
	 viewBox="0 0 512 512" style="enable-background:new 0 0 512 512;" xml:space="preserve">
<style type="text/css">
	.st0{display:none;fill:#7F7F7F;}
	.st1{display:none;}
	.st2{display:inline;fill:none;stroke:#FFFFFF;stroke-width:10;stroke-miterlimit:10;}
	.st3{fill:none;stroke:#000000;stroke-width:10;stroke-miterlimit:10;}
	.st4{fill:none;stroke:#000000;stroke-width:10;stroke-linecap:round;stroke-linejoin:round;stroke-miterlimit:10;}
</style>
<rect class="st0" width="512" height="512"/>
<g class="st1">
	<path class="st2" d="M189,144.8C189,77,219,53,256,53s67,25,67,91.8"/>
	<polygon class="st2" points="400,118 112,118 97,441 415,441 	"/>
</g>
<g class="st1">
	<line class="st2" x1="199" y1="280" x2="314" y2="280"/>
	<line class="st2" x1="256" y1="222.5" x2="256" y2="337.5"/>
</g>
<g>
	<path class="st3" d="M265.7,219v-62.3c0,0-131.4-26.3-139.3,9.2s102.6,54.4,131.4,53.2c28.7-1.2,120.4,1.8,122.8-56.8
		s-93-71.1-153.4-71.5c-60-0.4-151.1,6.3-170.5,70.3c-20.2,66.6,126.5,95.9,198,95.9c57.5,0,134.2-19.4,191.9-48.3
		c10.7-5.4,10.4,1.8,10.4,7.9s0.6,144.8,0.6,144.8s-101.4,72.7-231,58C97.1,404.7,62.8,362.1,55.6,327.7c-2.9-13.5,0.6-145,0.6-145"
		/>
	<line class="st3" x1="380.6" y1="162.2" x2="380.6" y2="235"/>
	<line class="st4" x1="125.7" y1="171.9" x2="125.7" y2="235"/>
	<line class="st4" x1="119.6" y1="321.6" x2="119.6" y2="394.5"/>
	<line class="st4" x1="250.3" y1="346.7" x2="250.3" y2="419.6"/>
	<line class="st4" x1="380.6" y1="327.1" x2="380.6" y2="400"/>
	<line class="st4" x1="315.5" y1="289.2" x2="315.5" y2="416.5"/>
	<line class="st4" x1="185" y1="285.5" x2="185" y2="412.7"/>
</g>
</svg>
