<?xml version="1.0" encoding="utf-8"?>
<!-- Generator: Adobe Illustrator 25.4.1, SVG Export Plug-In . SVG Version: 6.00 Build 0)  -->
<svg version="1.1" id="Layer_1" xmlns="http://www.w3.org/2000/svg" xmlns:xlink="http://www.w3.org/1999/xlink" x="0px" y="0px"
	 viewBox="0 0 1024 1024" style="enable-background:new 0 0 1024 1024;" xml:space="preserve">
<style type="text/css">
	.st0{fill:none;stroke:#010202;stroke-width:20;stroke-linecap:round;stroke-linejoin:round;stroke-miterlimit:10;}
</style>
<g>
	<path class="st0" d="M346.86,322.13c0,0,101.49-147.27,276.79-120s223.99,181.14,208.97,263.16"/>
	<path class="st0" d="M401.03,428.84c0,0-10.85-137.34-136.21-120.5c-109.84,14.75-96.58,141.81-96.58,141.81S14,526.43,40.29,661.8
		c10.19,52.46,37.93,88.83,68.08,113.7c39.56,32.63,89.55,44.91,140.83,44.91h413.59l5.63-0.02l157.98,0.15
		c0,0,160.69-0.97,160.69-171.4c0-189.91-183.09-189.91-229.84-189.91"/>
</g>
<polyline class="st0" points="636.95,562.59 540.72,460.03 440.4,562.59 "/>
<line class="st0" x1="541.24" y1="697.01" x2="541.24" y2="462.19"/>
</svg>
