<?xml version="1.0" encoding="utf-8"?>
<!-- Generator: Adobe Illustrator 22.0.1, SVG Export Plug-In . SVG Version: 6.00 Build 0)  -->
<svg version="1.1" id="Layer_1" xmlns="http://www.w3.org/2000/svg" xmlns:xlink="http://www.w3.org/1999/xlink" x="0px" y="0px"
	 viewBox="0 0 512 512" style="enable-background:new 0 0 512 512;" xml:space="preserve">
<style type="text/css">
	.st0{fill:none;stroke:#000000;stroke-width:15;stroke-miterlimit:10;}
	.st1{fill:none;stroke:#000000;stroke-width:15;stroke-linejoin:round;stroke-miterlimit:10;}
</style>
<circle class="st0" cx="256" cy="256" r="208"/>
<path class="st1" d="M260.3,271.4c2.6-0.3,5.1-0.9,7.7-1.4l17.5-3.9c0.4-0.1,2.3-0.6,2.7-0.8c1.4-0.6,2.4-1.4,3.1-2l8.8-7.8
	c1.7-1.4,3.5-3,5-4.5c1.3-1.3,2.5-2.7,3.7-4.1l10.3-12.2c1.7-2,1.9-4.9,0.6-7.1l-2.6-4.4l13.9-14.1c0.5-0.5,0.9-1.1,1.2-1.6
	c1.4-3,14.5-29.7,16.7-37.5c0.7-2.4-0.2-5-2.2-6.5c-1.9-1.5-4.7-1.7-6.8-0.5c-3,1.6-6.1,3.2-8.5,4.4c0-0.7,0-1.4,0.1-2.1
	c0.1-1.1-0.1-2-0.6-3c-6.2-13.3-7.8-14.5-8.9-15.3c-1.4-1.1-13.4-10.4-13.4-10.4c-1.3-1-2.8-1.4-4.3-1.3l-11,1l-6.9-2.3
	c-1.9-0.6-4-0.3-5.7,1c-1.6,1.3-2.5,3.2-2.5,5.2l1.1,25.8c-0.2,0.8-0.5,1.4-0.7,2.2c-5.3-4-12-9.1-12.1-9.2l-10-7.4l6.3-9l13.9-10.3
	c3.6-1.2,15.7-5,20.9-6.4c2.4-0.6,4.2-2.7,4.6-5.1c0.4-2.5-0.9-4.9-3-6.3l-18.2-10.9h24.1c3.5,0,6.3-2.8,6.3-6.3
	c0-2.8-0.9-3.7-5.2-7.5c-2.8-2.5-6.5-5.9-7.2-6.4c-4.6-7.9-12.1-8.5-18.2-9l-1.3-0.1C166.4,61.2,108,148.2,107.6,149
	c-0.7,1-1.1,2.2-1.1,3.4c0,6.3,0,6.4,35.2,9.1l2.6,4.8c0.6,1.1,1.9,3.7,4.5,5c0.3,0.2,1.2,0.5,1.5,0.6c2.5,0.8,4.8,2,7.1,3.2
	c1.5,0.8,3.4,0.9,5,0.3c1.7-0.7,3.7-1.2,5.2-1.5c0.2,4.1-0.6,11.3-3.5,15.4c-6.6,9.3-7.5,21.6-7.5,22.7c0.1,2.2,0.2,4.5,0.4,7.2
	c0.2,2.2,0.3,4.5,0.6,6.7c0.2,1.3,0.4,2.5,0.6,3.8c0.2,1.3,0.6,3.6,2.3,5.8c0.8,1,1.6,1.7,2.7,2.7c1.1,1,2.1,2,3.5,3.5
	c0.6,0.6,1.3,1.4,1.7,3l1.2,6.6c0.6,3.2,1.1,6.4,1.7,9.6l0.5,2.1c0.2,1.3,0.7,3.3,2.1,5.1c0.8,1,1.7,1.6,3.4,2.9
	c3.8,2.8,7.7,5.6,11.5,8.4l8,7c7.4,23.5,10.8,25.1,12.8,26.1c0.9,0.4,3,1.5,5.6,2.9c12,6.4,16.3,8.7,19.1,8.7c1.2,0,2-0.4,3.1-1.1
	c0.2-0.1,14.9-12.2,12.1-20.7c-0.2-0.7-0.7-1.8-1.3-3.4c-2-4.9-6.8-16.5-5-23.2c0.4-1.3,2.1-2.2,2.9-2.5c2-0.9,4.4-1.3,7.7-1.5
	c0.8,0,1.5,0,2.3,0C257.4,271.5,258.9,271.5,260.3,271.4z"/>
<path class="st1" d="M334.8,288.4c-0.6-0.1-2.2-0.3-21.1,2.5c-0.9,0.1-1.8,0.6-2.4,1.3c-1.3,1.5-4.5,4.9-2.3,8.2l0,0l4.8,7.1
	c0.7,1,1.8,1.6,3,1.8c1.9,0.2,11.5,1.2,13.7,1.2c1.3,0,4.1,0,11.8-9.9c0.9-1.3,1.1-3,0.4-4.4C338.6,288.8,335.8,288.5,334.8,288.4z"
	/>
<path class="st1" d="M417,320.6c-2.1-1.6-4.3-1.7-5.1-1.8c-4.5-0.3-8.7,0.5-12.4,1.1l-1.9,0.3c-3.5,0.6-6.9,0.7-11.6,0.9
	c-9,0.3-18,0.8-26.9,1.6c-2.6,0.2-5.2,0.5-7.7,1.3c-0.2,0.1-23,10.1-25.2,15.2c-0.8,1.8-0.7,3.8,0.1,5.5l3,6
	c-0.5,0.5-0.9,0.9-1.3,1.2c-0.1,0.1-1.1,1.1-1.2,1.2c-1.8,2-3.5,4.2-5.2,6.3c-1.1,1.4-2.1,2.7-3.2,4c-6.5,7.7-11.7,13.2-17.3,18
	c-0.8,0.7-1.9,1.7-2.8,3.3c-4,7.1,3.4,13.7,5.8,15.9c7.5,6.8,14.5,10.1,21.2,10.1c1,0,2-0.1,3-0.2c23.1-3.5,41.6-17.6,53-28.9
	c10.8-10.7,20.8-23.3,29.8-37.6c1.5-2.3,2.9-4.7,5.1-8.3c1.3-1.8,2.8-4.1,3.5-6.5c0,0,0.3-1.9,0.3-2
	C420.1,325.3,418.7,321.9,417,320.6z"/>
<path class="st1" d="M292.6,348.4c1.4,0,2.5-0.4,3.3-0.7c1-0.3,1.9-0.8,3.4-1.4l2.3-1.1c0.9-0.5,1.8-0.9,2.5-1.2
	c2.2-0.8,3.8-3.2,3.6-5.4c-0.1-0.8-0.5-1.7-0.9-2.4l-0.8-1.1c-0.7-1-1.4-1.9-2.1-2.7c-0.9-1-1.4-1.6-1.6-2.2l-0.3-1.3
	c0-0.4-0.2-1.8-0.3-2.1c-0.5-1.7-1.5-3.1-3.1-4.4c-1.2-1-2.6-1.8-3.9-2.6l-1.5-0.9c-0.8-0.5-2.3-2.5-3.8-5.3
	c-1.8-3.6-7.5-6.2-10.7-7.4c-2.2-0.8-4.2-0.7-5.6-0.5l-2,0.2c-1.1,0.2-3.7,0.5-5.4,3.2c-1.3,1.9-1.6,4-1.6,6.2c0,0.6,0,1.3-0.1,1.7
	c-0.2,0.5-0.5,1.3-1,2c-0.5,0.8-0.9,1.7-1.3,2.6c-0.6,1.6-0.8,3.2-0.3,4.7c0,0.1,0,0.1,0.1,0.2c0.6,1.8,1.7,2.9,2.7,3.8
	c0.8,0.8,1.7,1.7,2.6,2.3c1.7,1.4,3.5,2.6,5.5,3.6l5.1,2.7c1.5,0.8,2.9,1.8,4.5,2.9c1.7,1.1,3.5,2.4,5.1,3.9
	c0.7,0.6,1.7,1.6,3.2,2.2C291.1,348.3,291.9,348.4,292.6,348.4z"/>
<path class="st1" d="M367.2,294.5c0.3,0,0.5,0,0.8-0.1l16.3-2c1.5-0.2,2.8-0.9,3.8-1.9l1.2-1.2c3.5-3.6,7.1-7.3,10-11.9l6.1-9.9
	c0.8-1.3,1.7-2.7,2.2-4.2c1.5-3.6,0.3-6.2-0.6-7.4c-1.3-1.8-4.8-2.9-7.2-2.7l-3.5,0.3c-8,0.7-16.1,1.2-24.1,1.8l-1,0.1
	c-3,0.2-5.4,2.4-5.9,5.3l-4.6,26.2c-0.4,2,0.3,4.1,1.7,5.6C363.8,293.7,365.4,294.5,367.2,294.5z"/>
</svg>
